<svg width="197" height="191" viewBox="0 0 197 191" fill="none" xmlns="http://www.w3.org/2000/svg">
<g filter="url(#filter0_i_1185_1793)">
<path d="M137.06 2.81167L11.245 69.5944C1.35959 74.8416 -2.43534 87.2229 2.81187 97.1083L69.5946 222.923C74.8418 232.809 87.2231 236.604 97.1085 231.356L222.923 164.574C232.809 159.327 236.604 146.945 231.357 137.06L164.574 11.2448C159.327 1.35938 146.945 -2.43554 137.06 2.81167ZM105.265 192.471C97.8059 196.43 88.5887 193.605 84.6294 186.146C80.6702 178.687 83.4953 169.47 90.9543 165.51C98.4134 161.551 107.631 164.376 111.59 171.835C115.549 179.294 112.724 188.511 105.265 192.471ZM62.3332 111.59C54.8741 115.549 45.657 112.724 41.6977 105.265C37.7384 97.8057 40.5636 88.5885 48.0226 84.6292C55.4816 80.67 64.6988 83.4951 68.658 90.9541C72.6173 98.4131 69.7922 107.63 62.3332 111.59ZM124.24 130.564C116.781 134.523 107.563 131.698 103.604 124.239C99.6448 116.78 102.47 107.563 109.929 103.604C117.388 99.6446 126.605 102.47 130.564 109.929C134.524 117.388 131.699 126.605 124.24 130.564ZM186.146 149.539C178.687 153.498 169.47 150.673 165.51 143.214C161.551 135.755 164.376 126.538 171.835 122.579C179.294 118.619 188.512 121.444 192.471 128.903C196.43 136.362 193.605 145.58 186.146 149.539ZM143.214 68.6578C135.755 72.6171 126.538 69.792 122.579 62.333C118.619 54.8739 121.445 45.6568 128.904 41.6975C136.363 37.7382 145.58 40.5633 149.539 48.0224C153.498 55.4814 150.673 64.6986 143.214 68.6578Z" fill="#11C76F"/>
</g>
<path d="M11.4794 70.036L137.294 3.25341C146.936 -1.86433 159.014 1.83782 164.132 11.4794L230.915 137.294C236.032 146.936 232.33 159.014 222.689 164.132L96.874 230.915C87.2324 236.032 75.1539 232.33 70.0361 222.689L3.2535 96.8739C-1.86422 87.2323 1.83792 75.1538 11.4794 70.036ZM90.7196 165.069C83.0168 169.157 80.0995 178.677 84.1882 186.38C88.2769 194.083 97.7963 197.001 105.499 192.913C113.202 188.824 116.12 179.304 112.031 171.601C107.943 163.898 98.4225 160.98 90.7196 165.069ZM171.601 122.137C163.898 126.225 160.98 135.746 165.069 143.449C169.157 151.151 178.678 154.069 186.381 149.981C194.083 145.892 197.001 136.372 192.913 128.669C188.824 120.966 179.304 118.048 171.601 122.137ZM109.695 103.162C101.992 107.251 99.074 116.771 103.163 124.474C107.252 132.177 116.771 135.094 124.474 131.005C132.177 126.917 135.094 117.398 131.006 109.695C126.917 101.992 117.398 99.0737 109.695 103.162ZM47.7881 84.1881C40.0855 88.2769 37.1678 97.7958 41.2563 105.499C45.345 113.201 54.8644 116.12 62.5673 112.031C70.2702 107.943 73.1882 98.4224 69.0995 90.7195C65.0107 83.0167 55.4909 80.0995 47.7881 84.1881ZM128.669 41.2562C120.967 45.3449 118.048 54.8643 122.137 62.5672C126.226 70.2701 135.746 73.1881 143.449 69.0994C151.152 65.0106 154.07 55.4905 149.981 47.7875C145.892 40.0848 136.372 37.1676 128.669 41.2562Z" stroke="url(#paint0_linear_1185_1793)"/>
<defs>
<filter id="filter0_i_1185_1793" x="0.451172" y="0.450195" width="233.268" height="233.268" filterUnits="userSpaceOnUse" color-interpolation-filters="sRGB">
<feFlood flood-opacity="0" result="BackgroundImageFix"/>
<feBlend mode="normal" in="SourceGraphic" in2="BackgroundImageFix" result="shape"/>
<feColorMatrix in="SourceAlpha" type="matrix" values="0 0 0 0 0 0 0 0 0 0 0 0 0 0 0 0 0 0 127 0" result="hardAlpha"/>
<feOffset/>
<feGaussianBlur stdDeviation="12"/>
<feComposite in2="hardAlpha" operator="arithmetic" k2="-1" k3="1"/>
<feColorMatrix type="matrix" values="0 0 0 0 0 0 0 0 0 0 0 0 0 0 0 0 0 0 1 0"/>
<feBlend mode="normal" in2="shape" result="effect1_innerShadow_1185_1793"/>
</filter>
<linearGradient id="paint0_linear_1185_1793" x1="74.1525" y1="36.203" x2="160.016" y2="197.965" gradientUnits="userSpaceOnUse">
<stop stop-color="white"/>
<stop offset="1" stop-color="#999999"/>
</linearGradient>
</defs>
</svg>
