<svg width="245" height="239" viewBox="0 0 245 239" fill="none" xmlns="http://www.w3.org/2000/svg">
<g clip-path="url(#clip0_1185_1802)">
<mask id="path-1-inside-1_1185_1802" fill="white">
<path d="M102.176 198.475L101.069 152.988L96.299 144.001L69.3387 158.311L74.1089 167.298L92.0824 157.758L93.1896 203.245M138.124 179.394L137.016 133.907L132.246 124.92L105.286 139.231L110.056 148.217L128.03 138.677L129.137 184.164M174.071 160.313L172.963 114.826L168.193 105.839L141.233 120.15L146.003 129.137L163.977 119.596L165.084 165.084M198.263 32.2841C188.378 37.5313 184.583 49.9126 189.83 59.7981C193.169 66.0888 200.103 70.4715 206.926 70.3054L260.829 171.856L233.869 186.167L224.328 168.193C229.72 165.331 231.407 159.828 228.545 154.436L185.613 73.555C182.751 68.163 177.248 66.4763 171.856 69.3384L137.706 87.4652C124.793 80.4972 108.395 79.986 94.915 87.1413C81.4348 94.2966 72.6695 108.164 71.2043 122.765L37.0545 140.891C31.6624 143.753 29.9758 149.256 32.8379 154.648L75.7697 235.529C78.6318 240.921 84.1346 242.608 89.5266 239.746L122.918 302.653L257.72 231.101L243.409 204.14L270.37 189.83C280.255 184.582 284.05 172.201 278.803 162.316L224.899 60.765C228.86 55.2068 229.116 47.008 225.777 40.7173C220.53 30.8318 208.148 27.0369 198.263 32.2841ZM207.462 223.221L144.555 256.612L135.014 238.639L197.922 205.247L207.462 223.221ZM205.801 154.99L88.973 217.002L55.5817 154.095L172.41 92.0822L205.801 154.99Z"/>
</mask>
<g filter="url(#filter0_i_1185_1802)">
<path d="M102.176 198.475L101.069 152.988L96.299 144.001L69.3387 158.311L74.1089 167.298L92.0824 157.758L93.1896 203.245M138.124 179.394L137.016 133.907L132.246 124.92L105.286 139.231L110.056 148.217L128.03 138.677L129.137 184.164M174.071 160.313L172.963 114.826L168.193 105.839L141.233 120.15L146.003 129.137L163.977 119.596L165.084 165.084M198.263 32.2841C188.378 37.5313 184.583 49.9126 189.83 59.7981C193.169 66.0888 200.103 70.4715 206.926 70.3054L260.829 171.856L233.869 186.167L224.328 168.193C229.72 165.331 231.407 159.828 228.545 154.436L185.613 73.555C182.751 68.163 177.248 66.4763 171.856 69.3384L137.706 87.4652C124.793 80.4972 108.395 79.986 94.915 87.1413C81.4348 94.2966 72.6695 108.164 71.2043 122.765L37.0545 140.891C31.6624 143.753 29.9758 149.256 32.8379 154.648L75.7697 235.529C78.6318 240.921 84.1346 242.608 89.5266 239.746L122.918 302.653L257.72 231.101L243.409 204.14L270.37 189.83C280.255 184.582 284.05 172.201 278.803 162.316L224.899 60.765C228.86 55.2068 229.116 47.008 225.777 40.7173C220.53 30.8318 208.148 27.0369 198.263 32.2841ZM207.462 223.221L144.555 256.612L135.014 238.639L197.922 205.247L207.462 223.221ZM205.801 154.99L88.973 217.002L55.5817 154.095L172.41 92.0822L205.801 154.99Z" fill="#11C76F"/>
</g>
<path d="M101.069 152.988L102.069 152.963L102.063 152.727L101.952 152.519L101.069 152.988ZM96.299 144.001L97.1823 143.532L96.7134 142.649L95.8302 143.117L96.299 144.001ZM69.3387 158.311L68.8698 157.428L67.9865 157.897L68.4554 158.78L69.3387 158.311ZM74.1089 167.298L73.2256 167.767L73.6944 168.65L74.5777 168.181L74.1089 167.298ZM92.0824 157.758L93.0821 157.733L93.0428 156.116L91.6136 156.874L92.0824 157.758ZM137.016 133.907L138.016 133.882L138.01 133.646L137.9 133.438L137.016 133.907ZM132.246 124.92L133.129 124.451L132.661 123.568L131.777 124.037L132.246 124.92ZM105.286 139.231L104.817 138.347L103.934 138.816L104.403 139.699L105.286 139.231ZM110.056 148.217L109.173 148.686L109.642 149.569L110.525 149.101L110.056 148.217ZM128.03 138.677L129.029 138.653L128.99 137.035L127.561 137.794L128.03 138.677ZM172.963 114.826L173.963 114.802L173.957 114.566L173.847 114.357L172.963 114.826ZM168.193 105.839L169.077 105.37L168.608 104.487L167.724 104.956L168.193 105.839ZM141.233 120.15L140.764 119.266L139.881 119.735L140.35 120.619L141.233 120.15ZM146.003 129.137L145.12 129.605L145.589 130.489L146.472 130.02L146.003 129.137ZM163.977 119.596L164.976 119.572L164.937 117.954L163.508 118.713L163.977 119.596ZM206.926 70.3054L207.809 69.8365L207.519 69.2906L206.902 69.3057L206.926 70.3054ZM260.829 171.856L261.298 172.739L262.181 172.27L261.712 171.387L260.829 171.856ZM233.869 186.167L232.985 186.635L233.454 187.519L234.338 187.05L233.869 186.167ZM224.328 168.193L223.86 167.31L222.976 167.779L223.445 168.662L224.328 168.193ZM137.706 87.4652L137.232 88.3452L137.703 88.5994L138.175 88.3485L137.706 87.4652ZM71.2043 122.765L71.6731 123.648L72.1459 123.397L72.1993 122.864L71.2043 122.765ZM89.5266 239.746L90.4099 239.277L89.9411 238.394L89.0578 238.863L89.5266 239.746ZM122.918 302.653L122.035 303.122L122.504 304.006L123.387 303.537L122.918 302.653ZM257.72 231.101L258.189 231.984L259.072 231.515L258.603 230.632L257.72 231.101ZM243.409 204.14L242.94 203.257L242.057 203.726L242.526 204.609L243.409 204.14ZM224.899 60.765L224.085 60.1846L223.726 60.6879L224.016 61.2338L224.899 60.765ZM207.462 223.221L207.931 224.104L208.814 223.635L208.345 222.752L207.462 223.221ZM144.555 256.612L143.671 257.081L144.14 257.964L145.023 257.496L144.555 256.612ZM135.014 238.639L134.545 237.755L133.662 238.224L134.131 239.108L135.014 238.639ZM197.922 205.247L198.805 204.779L198.336 203.895L197.453 204.364L197.922 205.247ZM205.801 154.99L206.27 155.873L207.153 155.404L206.684 154.521L205.801 154.99ZM88.973 217.002L88.0898 217.471L88.5586 218.354L89.4419 217.885L88.973 217.002ZM55.5817 154.095L55.1128 153.211L54.2296 153.68L54.6984 154.564L55.5817 154.095ZM172.41 92.0822L173.293 91.6134L172.824 90.7301L171.941 91.1989L172.41 92.0822ZM103.176 198.451L102.069 152.963L100.069 153.012L101.177 198.499L103.176 198.451ZM101.952 152.519L97.1823 143.532L95.4157 144.47L100.186 153.456L101.952 152.519ZM95.8302 143.117L68.8698 157.428L69.8075 159.195L96.7679 144.884L95.8302 143.117ZM68.4554 158.78L73.2256 167.767L74.9921 166.829L70.2219 157.842L68.4554 158.78ZM74.5777 168.181L92.5513 158.641L91.6136 156.874L73.64 166.415L74.5777 168.181ZM91.0827 157.782L92.1899 203.27L94.1893 203.221L93.0821 157.733L91.0827 157.782ZM139.123 179.37L138.016 133.882L136.017 133.931L137.124 179.419L139.123 179.37ZM137.9 133.438L133.129 124.451L131.363 125.389L136.133 134.376L137.9 133.438ZM131.777 124.037L104.817 138.347L105.755 140.114L132.715 125.803L131.777 124.037ZM104.403 139.699L109.173 148.686L110.939 147.748L106.169 138.762L104.403 139.699ZM110.525 149.101L128.498 139.56L127.561 137.794L109.587 147.334L110.525 149.101ZM127.03 138.701L128.137 184.189L130.136 184.14L129.029 138.653L127.03 138.701ZM175.07 160.289L173.963 114.802L171.964 114.85L173.071 160.338L175.07 160.289ZM173.847 114.357L169.077 105.37L167.31 106.308L172.08 115.295L173.847 114.357ZM167.724 104.956L140.764 119.266L141.702 121.033L168.662 106.722L167.724 104.956ZM140.35 120.619L145.12 129.605L146.886 128.668L142.116 119.681L140.35 120.619ZM146.472 130.02L164.446 120.479L163.508 118.713L145.534 128.253L146.472 130.02ZM162.977 119.62L164.084 165.108L166.084 165.059L164.976 119.572L162.977 119.62ZM197.794 31.4008C187.421 36.907 183.44 49.8936 188.947 60.2669L190.713 59.3292C185.725 49.9316 189.334 38.1557 198.732 33.1674L197.794 31.4008ZM188.947 60.2669C192.444 66.8562 199.709 71.4813 206.95 71.3051L206.902 69.3057C200.496 69.4616 193.894 65.3214 190.713 59.3292L188.947 60.2669ZM206.043 70.7742L259.946 172.325L261.712 171.387L207.809 69.8365L206.043 70.7742ZM260.36 170.973L233.4 185.283L234.338 187.05L261.298 172.739L260.36 170.973ZM234.752 185.698L225.212 167.724L223.445 168.662L232.985 186.635L234.752 185.698ZM224.797 169.076C227.694 167.539 229.662 165.252 230.488 162.556C231.314 159.861 230.966 156.864 229.428 153.967L227.662 154.905C228.986 157.4 229.226 159.85 228.576 161.97C227.926 164.09 226.355 165.985 223.86 167.31L224.797 169.076ZM229.428 153.967L186.497 73.0862L184.73 74.0239L227.662 154.905L229.428 153.967ZM186.497 73.0862C184.959 70.1894 182.672 68.2214 179.977 67.3953C177.281 66.5692 174.284 66.9176 171.387 68.4552L172.325 70.2217C174.82 68.8972 177.271 68.6578 179.39 69.3075C181.51 69.9572 183.405 71.5286 184.73 74.0239L186.497 73.0862ZM171.387 68.4552L137.238 86.5819L138.175 88.3485L172.325 70.2217L171.387 68.4552ZM138.181 86.5851C124.988 79.4661 108.236 78.9385 94.4461 86.2581L95.3838 88.0246C108.555 81.0336 124.598 81.5283 137.232 88.3452L138.181 86.5851ZM94.4461 86.2581C80.6565 93.5776 71.7062 107.748 70.2093 122.665L72.1993 122.864C73.6327 108.581 82.2131 95.0156 95.3838 88.0246L94.4461 86.2581ZM70.7354 121.881L36.5857 140.008L37.5234 141.775L71.6731 123.648L70.7354 121.881ZM36.5857 140.008C33.6889 141.546 31.7209 143.833 30.8948 146.528C30.0687 149.223 30.417 152.22 31.9546 155.117L33.7212 154.179C32.3967 151.684 32.1573 149.234 32.807 147.114C33.4567 144.994 35.028 143.099 37.5234 141.775L36.5857 140.008ZM31.9546 155.117L74.8864 235.998L76.653 235.061L33.7212 154.179L31.9546 155.117ZM74.8864 235.998C76.424 238.895 78.7112 240.863 81.4064 241.689C84.1016 242.515 87.0987 242.167 89.9955 240.629L89.0578 238.863C86.5625 240.187 84.1122 240.427 81.9925 239.777C79.8727 239.127 77.9775 237.556 76.653 235.061L74.8864 235.998ZM88.6434 240.215L122.035 303.122L123.801 302.185L90.4099 239.277L88.6434 240.215ZM123.387 303.537L258.189 231.984L257.251 230.217L122.449 301.77L123.387 303.537ZM258.603 230.632L244.292 203.671L242.526 204.609L256.836 231.569L258.603 230.632ZM243.878 205.023L270.838 190.713L269.901 188.946L242.94 203.257L243.878 205.023ZM270.838 190.713C281.212 185.207 285.192 172.22 279.686 161.847L277.919 162.784C282.908 172.182 279.298 183.958 269.901 188.946L270.838 190.713ZM279.686 161.847L225.783 60.2962L224.016 61.2338L277.919 162.784L279.686 161.847ZM225.714 61.3454C229.917 55.4469 230.158 46.8377 226.66 40.2484L224.894 41.1861C228.074 47.1783 227.804 54.9668 224.085 60.1846L225.714 61.3454ZM226.66 40.2484C221.154 29.8751 208.167 25.8947 197.794 31.4008L198.732 33.1674C208.129 28.1791 219.905 31.7885 224.894 41.1861L226.66 40.2484ZM206.993 222.338L144.086 255.729L145.023 257.496L207.931 224.104L206.993 222.338ZM145.438 256.143L135.897 238.17L134.131 239.108L143.671 257.081L145.438 256.143ZM135.483 239.522L198.39 206.131L197.453 204.364L134.545 237.755L135.483 239.522ZM197.038 205.716L206.579 223.69L208.345 222.752L198.805 204.779L197.038 205.716ZM205.332 154.106L88.5042 216.119L89.4419 217.885L206.27 155.873L205.332 154.106ZM89.8563 216.533L56.465 153.626L54.6984 154.564L88.0898 217.471L89.8563 216.533ZM56.0505 154.978L172.879 92.9655L171.941 91.1989L55.1128 153.211L56.0505 154.978ZM171.527 92.551L204.918 155.459L206.684 154.521L173.293 91.6134L171.527 92.551Z" fill="white" mask="url(#path-1-inside-1_1185_1802)"/>
</g>
<defs>
<filter id="filter0_i_1185_1802" x="31.459" y="29.9224" width="249.705" height="272.731" filterUnits="userSpaceOnUse" color-interpolation-filters="sRGB">
<feFlood flood-opacity="0" result="BackgroundImageFix"/>
<feBlend mode="normal" in="SourceGraphic" in2="BackgroundImageFix" result="shape"/>
<feColorMatrix in="SourceAlpha" type="matrix" values="0 0 0 0 0 0 0 0 0 0 0 0 0 0 0 0 0 0 127 0" result="hardAlpha"/>
<feOffset/>
<feGaussianBlur stdDeviation="12"/>
<feComposite in2="hardAlpha" operator="arithmetic" k2="-1" k3="1"/>
<feColorMatrix type="matrix" values="0 0 0 0 0 0 0 0 0 0 0 0 0 0 0 0 0 0 1 0"/>
<feBlend mode="normal" in2="shape" result="effect1_innerShadow_1185_1802"/>
</filter>
<clipPath id="clip0_1185_1802">
<rect width="244.184" height="244.184" fill="white" transform="translate(0 114.485) rotate(-27.9594)"/>
</clipPath>
</defs>
</svg>
