<svg width="608" height="24" viewBox="0 0 608 24" fill="none" xmlns="http://www.w3.org/2000/svg">
<path d="M182.333 3C182.333 4.47276 183.527 5.66667 185 5.66667C186.472 5.66667 187.666 4.47276 187.666 3C187.666 1.52724 186.472 0.333333 185 0.333333C183.527 0.333333 182.333 1.52724 182.333 3ZM61.1928 7L60.6928 7L61.1928 7ZM61.1928 19L61.6928 19L61.1928 19ZM102.462 3V3.5H185V3V2.5H102.462V3ZM61.1928 19L61.6928 19L61.6928 7L61.1928 7L60.6928 7L60.6928 19L61.1928 19ZM65.1928 3V3.5H102.462V3V2.5H65.1928V3ZM57.1928 23V22.5H44.4238V23V23.5H57.1928V23ZM40.4238 19H40.9238V17.5H40.4238H39.9238V19H40.4238ZM36.4238 13.5V13H30.4238V13.5V14H36.4238V13.5ZM24.4238 19.5V19H18.9238V19.5V20H24.4238V19.5ZM14.9238 15.5H15.4238V7H14.9238H14.4238V15.5H14.9238ZM10.9238 3V2.5H0.423828V3V3.5H10.9238V3ZM14.9238 7H15.4238C15.4238 4.51472 13.4091 2.5 10.9238 2.5V3V3.5C12.8568 3.5 14.4238 5.067 14.4238 7H14.9238ZM18.9238 19.5V19C16.9908 19 15.4238 17.433 15.4238 15.5H14.9238H14.4238C14.4238 17.9853 16.4385 20 18.9238 20V19.5ZM27.4238 16.5H26.9238C26.9238 17.8807 25.8045 19 24.4238 19V19.5V20C26.3568 20 27.9238 18.433 27.9238 16.5H27.4238ZM30.4238 13.5V13C28.4908 13 26.9238 14.567 26.9238 16.5H27.4238H27.9238C27.9238 15.1193 29.0431 14 30.4238 14V13.5ZM44.4238 23V22.5C42.4908 22.5 40.9238 20.933 40.9238 19H40.4238H39.9238C39.9238 21.4853 41.9386 23.5 44.4238 23.5V23ZM61.1928 7L61.6928 7C61.6928 5.06701 63.2598 3.5 65.1928 3.5V3V2.5C62.7075 2.5 60.6928 4.51472 60.6928 7L61.1928 7ZM40.4238 17.5H40.9238C40.9238 15.0147 38.9091 13 36.4238 13V13.5V14C38.3568 14 39.9238 15.567 39.9238 17.5H40.4238ZM61.1928 19L60.6928 19C60.6928 20.933 59.1258 22.5 57.1928 22.5V23V23.5C59.678 23.5 61.6928 21.4853 61.6928 19L61.1928 19Z" fill="url(#paint0_linear_1337_1181)"/>
<path d="M425.667 3C425.667 4.47276 424.473 5.66667 423 5.66667C421.528 5.66667 420.334 4.47276 420.334 3C420.334 1.52724 421.528 0.333333 423 0.333333C424.473 0.333333 425.667 1.52724 425.667 3ZM546.807 7L547.307 7L546.807 7ZM546.807 19L546.307 19L546.807 19ZM505.538 3V3.5H423V3V2.5H505.538V3ZM546.807 19L546.307 19L546.307 7L546.807 7L547.307 7L547.307 19L546.807 19ZM542.807 3V3.5H505.538V3V2.5H542.807V3ZM550.807 23V22.5H563.576V23V23.5H550.807V23ZM567.576 19H567.076V17.5H567.576H568.076V19H567.576ZM571.576 13.5V13H577.576V13.5V14H571.576V13.5ZM583.576 19.5V19H589.076V19.5V20H583.576V19.5ZM593.076 15.5H592.576V7H593.076H593.576V15.5H593.076ZM597.076 3V2.5H607.576V3V3.5H597.076V3ZM593.076 7H592.576C592.576 4.51472 594.591 2.5 597.076 2.5V3V3.5C595.143 3.5 593.576 5.067 593.576 7H593.076ZM589.076 19.5V19C591.009 19 592.576 17.433 592.576 15.5H593.076H593.576C593.576 17.9853 591.561 20 589.076 20V19.5ZM580.576 16.5H581.076C581.076 17.8807 582.195 19 583.576 19V19.5V20C581.643 20 580.076 18.433 580.076 16.5H580.576ZM577.576 13.5V13C579.509 13 581.076 14.567 581.076 16.5H580.576H580.076C580.076 15.1193 578.957 14 577.576 14V13.5ZM563.576 23V22.5C565.509 22.5 567.076 20.933 567.076 19H567.576H568.076C568.076 21.4853 566.061 23.5 563.576 23.5V23ZM546.807 7L546.307 7C546.307 5.06701 544.74 3.5 542.807 3.5V3V2.5C545.293 2.5 547.307 4.51472 547.307 7L546.807 7ZM567.576 17.5H567.076C567.076 15.0147 569.091 13 571.576 13V13.5V14C569.643 14 568.076 15.567 568.076 17.5H567.576ZM546.807 19L547.307 19C547.307 20.933 548.874 22.5 550.807 22.5V23V23.5C548.322 23.5 546.307 21.4853 546.307 19L546.807 19Z" fill="url(#paint1_linear_1337_1181)"/>
<defs>
<linearGradient id="paint0_linear_1337_1181" x1="19.9238" y1="3.5" x2="185" y2="3.5" gradientUnits="userSpaceOnUse">
<stop stop-color="#999999" stop-opacity="0"/>
<stop offset="1" stop-color="white"/>
</linearGradient>
<linearGradient id="paint1_linear_1337_1181" x1="588.076" y1="3.5" x2="423" y2="3.5" gradientUnits="userSpaceOnUse">
<stop stop-color="#999999" stop-opacity="0"/>
<stop offset="1" stop-color="white"/>
</linearGradient>
</defs>
</svg>
