<svg width="1440" height="374" viewBox="0 0 1440 374" fill="none" xmlns="http://www.w3.org/2000/svg">
<g filter="url(#filter0_f_1325_1174)">
<path d="M1359.01 118.379L1494.73 178.323L1416.52 355.391C1414.67 359.592 1409.76 361.494 1405.56 359.638L1274.96 301.958C1272.13 300.708 1270.85 297.401 1272.1 294.572L1278.61 279.82C1279.21 278.457 1280.41 277.456 1281.85 277.101L1282.14 277.038C1286.25 276.286 1288.47 271.85 1286.71 268.141L1286.53 267.784L1286.31 267.382C1285.54 265.98 1285.47 264.299 1286.11 262.835L1348.04 122.627L1348.22 122.24C1350.2 118.31 1354.94 116.582 1359.01 118.379Z" fill="#11C76F" fill-opacity="0.2"/>
<path d="M1359.01 118.379L1494.73 178.323L1416.52 355.391C1414.67 359.592 1409.76 361.494 1405.56 359.638L1274.96 301.958C1272.13 300.708 1270.85 297.401 1272.1 294.572L1278.61 279.82C1279.21 278.457 1280.41 277.456 1281.85 277.101L1282.14 277.038C1286.25 276.286 1288.47 271.85 1286.71 268.141L1286.53 267.784L1286.31 267.382C1285.54 265.98 1285.47 264.299 1286.11 262.835L1348.04 122.627L1348.22 122.24C1350.2 118.31 1354.94 116.582 1359.01 118.379Z" stroke="url(#paint0_linear_1325_1174)" stroke-width="1.512"/>
<path d="M1359.01 118.379L1494.73 178.323L1416.52 355.391C1414.67 359.592 1409.76 361.494 1405.56 359.638L1274.96 301.958C1272.13 300.708 1270.85 297.401 1272.1 294.572L1278.61 279.82C1279.21 278.457 1280.41 277.456 1281.85 277.101L1282.14 277.038C1286.25 276.286 1288.47 271.85 1286.71 268.141L1286.53 267.784L1286.31 267.382C1285.54 265.98 1285.47 264.299 1286.11 262.835L1348.04 122.627L1348.22 122.24C1350.2 118.31 1354.94 116.582 1359.01 118.379Z" stroke="url(#paint1_linear_1325_1174)" stroke-opacity="0.5" stroke-width="1.512"/>
<g clip-path="url(#clip0_1325_1174)">
<path d="M1408.71 347.39C1409.78 346.694 1410.77 346.053 1411.16 345.153C1411.42 344.569 1411.44 343.905 1411.21 343.309C1410.98 342.713 1410.52 342.233 1409.93 341.974C1409.35 341.716 1408.68 341.701 1408.09 341.932C1407.49 342.162 1407.01 342.621 1406.75 343.206C1406.36 344.106 1406.55 345.266 1406.75 346.526L1406.8 346.781C1406.69 346.589 1406.59 346.408 1406.5 346.239C1406.01 345.311 1405.68 344.71 1404.92 344.372C1404.34 344.114 1403.67 344.099 1403.08 344.33C1402.48 344.561 1402 345.019 1401.74 345.604C1401.48 346.189 1401.47 346.852 1401.7 347.448C1401.93 348.044 1402.39 348.524 1402.97 348.783C1403.87 349.18 1405.03 348.99 1406.29 348.783L1406.31 348.78C1405.71 350.014 1404.89 350.577 1403.99 351.197L1403.64 351.439C1403.27 351.696 1403.34 352.239 1403.75 352.42L1406.38 353.58C1406.79 353.761 1407.23 353.447 1407.18 353.003L1407.12 352.581C1406.97 351.496 1406.84 350.513 1407.34 349.232L1407.35 349.251C1408.05 350.321 1408.69 351.307 1409.59 351.705C1410.17 351.963 1410.84 351.978 1411.43 351.747C1412.03 351.516 1412.51 351.058 1412.77 350.473C1413.03 349.888 1413.04 349.225 1412.81 348.629C1412.58 348.033 1412.12 347.553 1411.54 347.294C1410.77 346.957 1410.11 347.124 1409.09 347.382C1408.91 347.43 1408.71 347.48 1408.49 347.531L1408.71 347.39Z" fill="#11C76F" fill-opacity="0.5"/>
</g>
<g clip-path="url(#clip1_1325_1174)">
<g filter="url(#filter1_i_1325_1174)">
<path d="M1387.13 238.62C1391.41 235.836 1395.36 233.272 1396.94 229.673C1397.98 227.334 1398.04 224.68 1397.12 222.295C1396.19 219.91 1394.36 217.99 1392.02 216.957C1389.68 215.924 1387.03 215.862 1384.64 216.786C1382.26 217.709 1380.34 219.543 1379.3 221.882C1377.71 225.483 1378.47 230.125 1379.3 235.163L1379.47 236.183C1379.05 235.416 1378.66 234.693 1378.3 234.016C1376.31 230.303 1375.03 227.899 1371.97 226.549C1369.63 225.516 1366.98 225.455 1364.59 226.378C1362.21 227.302 1360.29 229.135 1359.26 231.474C1358.22 233.814 1358.16 236.468 1359.08 238.852C1360.01 241.237 1361.84 243.157 1364.18 244.191C1367.78 245.781 1372.42 245.019 1377.46 244.193L1377.55 244.178C1375.12 249.117 1371.85 251.366 1368.23 253.848L1366.83 254.816C1365.37 255.844 1365.65 258.016 1367.29 258.74L1377.79 263.38C1379.43 264.103 1381.23 262.849 1381 261.072L1380.77 259.385C1380.17 255.044 1379.63 251.11 1381.65 245.989L1381.7 246.063C1384.48 250.344 1387.04 254.288 1390.64 255.878C1392.98 256.911 1395.64 256.972 1398.02 256.049C1400.4 255.125 1402.33 253.292 1403.36 250.953C1404.39 248.613 1404.45 245.96 1403.53 243.575C1402.61 241.19 1400.77 239.27 1398.43 238.237C1395.38 236.887 1392.74 237.557 1388.65 238.59C1387.91 238.781 1387.11 238.979 1386.26 239.183L1387.13 238.62Z" fill="url(#paint2_radial_1325_1174)"/>
</g>
<path d="M1391.87 217.303C1394.12 218.296 1395.88 220.141 1396.76 222.432C1397.65 224.723 1397.59 227.273 1396.6 229.521L1396.45 229.841C1395.67 231.432 1394.4 232.831 1392.8 234.162C1391.1 235.584 1389.07 236.908 1386.92 238.303L1386.06 238.866L1386.35 239.55C1387.2 239.346 1388 239.148 1388.75 238.956L1388.75 238.954C1392.85 237.916 1395.36 237.294 1398.28 238.583C1400.53 239.576 1402.29 241.42 1403.18 243.711C1404.06 246.002 1404.01 248.552 1403.01 250.8C1402.02 253.048 1400.17 254.809 1397.88 255.697C1395.59 256.584 1393.04 256.524 1390.79 255.532C1389.07 254.77 1387.57 253.435 1386.15 251.737C1385.09 250.463 1384.08 248.999 1383.05 247.441L1382.01 245.857L1381.97 245.787L1381.57 245.16L1381.3 245.851C1379.24 251.07 1379.8 255.092 1380.4 259.437L1380.4 259.436L1380.63 261.119L1380.63 261.12C1380.81 262.582 1379.34 263.648 1377.95 263.034L1367.44 258.394C1366.05 257.781 1365.85 255.973 1367.05 255.126L1368.45 254.158L1368.45 254.157C1372.06 251.674 1375.41 249.379 1377.89 244.344L1378.21 243.678L1377.48 243.806L1377.4 243.82C1374.88 244.234 1372.48 244.627 1370.27 244.721C1368.05 244.814 1366.06 244.607 1364.33 243.845C1362.09 242.852 1360.32 241.007 1359.44 238.716C1358.55 236.425 1358.61 233.874 1359.6 231.627C1360.59 229.379 1362.44 227.618 1364.73 226.731C1367.02 225.843 1369.57 225.903 1371.82 226.896C1374.74 228.184 1375.97 230.459 1377.96 234.194L1377.96 234.193C1378.33 234.872 1378.72 235.596 1379.14 236.365L1379.84 236.121L1379.67 235.101L1379.37 233.233C1379.08 231.39 1378.84 229.628 1378.77 227.968C1378.68 225.756 1378.89 223.761 1379.65 222.035L1379.85 221.62C1380.87 219.571 1382.63 217.971 1384.78 217.139C1387.07 216.251 1389.62 216.31 1391.87 217.303Z" stroke="url(#paint3_radial_1325_1174)" stroke-width="0.756"/>
</g>
<g clip-path="url(#clip2_1325_1174)">
<path d="M1358.69 130.615C1359.76 129.919 1360.75 129.278 1361.14 128.379C1361.4 127.794 1361.42 127.13 1361.19 126.534C1360.95 125.938 1360.5 125.458 1359.91 125.199C1359.33 124.941 1358.66 124.926 1358.07 125.157C1357.47 125.388 1356.99 125.846 1356.73 126.431C1356.33 127.331 1356.52 128.492 1356.73 129.751L1356.77 130.006C1356.67 129.814 1356.57 129.633 1356.48 129.464C1355.98 128.536 1355.66 127.935 1354.9 127.598C1354.31 127.339 1353.65 127.324 1353.05 127.555C1352.46 127.786 1351.98 128.244 1351.72 128.829C1351.46 129.414 1351.45 130.077 1351.68 130.673C1351.91 131.269 1352.37 131.75 1352.95 132.008C1353.85 132.405 1355.01 132.215 1356.27 132.008L1356.29 132.005C1355.69 133.239 1354.87 133.802 1353.96 134.422L1353.61 134.664C1353.25 134.921 1353.32 135.464 1353.73 135.645L1356.35 136.805C1356.76 136.986 1357.21 136.672 1357.16 136.228L1357.1 135.807C1356.95 134.721 1356.81 133.738 1357.32 132.458L1357.33 132.476C1358.03 133.546 1358.67 134.532 1359.57 134.93C1360.15 135.188 1360.82 135.203 1361.41 134.972C1362.01 134.742 1362.49 134.283 1362.75 133.698C1363 133.114 1363.02 132.45 1362.79 131.854C1362.56 131.258 1362.1 130.778 1361.51 130.519C1360.75 130.182 1360.09 130.349 1359.07 130.608C1358.88 130.655 1358.68 130.705 1358.47 130.756L1358.69 130.615Z" fill="#11C76F" fill-opacity="0.5"/>
</g>
<path d="M1331.37 306.207C1330.92 307.226 1331.38 308.416 1332.4 308.866C1333.42 309.316 1334.61 308.855 1335.06 307.836C1335.51 306.818 1335.05 305.628 1334.03 305.178C1333.01 304.728 1331.82 305.189 1331.37 306.207ZM1315.24 320.327L1315.58 320.479L1318.17 314.627L1317.82 314.474L1317.47 314.322L1314.89 320.174L1315.24 320.327ZM1319.81 313.702L1319.66 314.048L1321.03 314.652L1321.18 314.306L1321.34 313.961L1319.97 313.356L1319.81 313.702ZM1323.18 313.534L1323.52 313.687L1324.22 312.112L1323.87 311.959L1323.53 311.806L1322.83 313.381L1323.18 313.534ZM1325.87 311.187L1325.71 311.533L1328.94 312.959L1329.1 312.613L1329.25 312.267L1326.02 310.841L1325.87 311.187ZM1331.09 311.841L1331.44 311.993L1333.56 307.175L1333.22 307.022L1332.87 306.869L1330.74 311.688L1331.09 311.841ZM1329.1 312.613L1328.94 312.959C1329.9 313.38 1331.01 312.948 1331.44 311.993L1331.09 311.841L1330.74 311.688C1330.49 312.261 1329.82 312.52 1329.25 312.267L1329.1 312.613ZM1323.87 311.959L1324.22 312.112C1324.47 311.539 1325.14 311.28 1325.71 311.533L1325.87 311.187L1326.02 310.841C1325.06 310.419 1323.95 310.851 1323.53 311.806L1323.87 311.959ZM1321.18 314.306L1321.03 314.652C1321.98 315.074 1323.1 314.642 1323.52 313.687L1323.18 313.534L1322.83 313.381C1322.58 313.954 1321.91 314.214 1321.34 313.961L1321.18 314.306ZM1317.82 314.474L1318.17 314.627C1318.42 314.054 1319.09 313.795 1319.66 314.048L1319.81 313.702L1319.97 313.356C1319.01 312.935 1317.9 313.367 1317.47 314.322L1317.82 314.474Z" fill="#11C76F" fill-opacity="0.2"/>
<path d="M1339.31 305.018C1338.86 306.037 1339.32 307.227 1340.34 307.677C1341.36 308.127 1342.55 307.666 1343 306.647C1343.45 305.629 1342.99 304.439 1341.97 303.989C1340.95 303.539 1339.76 304 1339.31 305.018ZM1328.79 326.56L1329.13 326.712L1331.72 320.86L1331.37 320.707L1331.03 320.554L1328.44 326.407L1328.79 326.56ZM1333.37 319.935L1333.21 320.281L1335.41 321.25L1335.56 320.904L1335.72 320.559L1333.52 319.589L1333.37 319.935ZM1337.56 320.132L1337.9 320.285L1338.89 318.05L1338.54 317.897L1338.2 317.745L1337.21 319.979L1337.56 320.132ZM1337.27 314.619L1337.62 314.772L1341.5 305.986L1341.15 305.833L1340.81 305.68L1336.93 314.466L1337.27 314.619ZM1337.91 316.258L1338.06 315.912C1337.62 315.719 1337.43 315.209 1337.62 314.772L1337.27 314.619L1336.93 314.466C1336.57 315.285 1336.94 316.242 1337.76 316.604L1337.91 316.258ZM1338.54 317.897L1338.89 318.05C1339.25 317.231 1338.88 316.274 1338.06 315.912L1337.91 316.258L1337.76 316.604C1338.19 316.797 1338.39 317.308 1338.2 317.745L1338.54 317.897ZM1335.56 320.904L1335.41 321.25C1336.36 321.672 1337.48 321.24 1337.9 320.285L1337.56 320.132L1337.21 319.979C1336.96 320.552 1336.29 320.812 1335.72 320.559L1335.56 320.904ZM1331.37 320.707L1331.72 320.86C1331.97 320.287 1332.64 320.028 1333.21 320.281L1333.37 319.935L1333.52 319.589C1332.57 319.167 1331.45 319.599 1331.03 320.554L1331.37 320.707Z" fill="#11C76F" fill-opacity="0.2"/>
</g>
<g filter="url(#filter2_d_1325_1174)">
<path d="M1247.74 52.5066L1406.98 95.1743L1351.32 302.923C1350 307.852 1344.93 310.777 1340 309.457L1186.77 268.4C1183.45 267.51 1181.48 264.098 1182.37 260.778L1187.01 243.471C1187.44 241.871 1188.58 240.568 1190.1 239.932L1190.41 239.814C1194.93 238.239 1196.58 232.695 1193.65 228.904L1193.34 228.501C1192.26 227.094 1191.89 225.26 1192.35 223.543L1236.43 59.0404C1237.75 54.1112 1242.81 51.1858 1247.74 52.5066Z" fill="#11C76F" fill-opacity="0.2"/>
<path d="M1247.74 52.5066L1406.98 95.1743L1351.32 302.923C1350 307.852 1344.93 310.777 1340 309.457L1186.77 268.4C1183.45 267.51 1181.48 264.098 1182.37 260.778L1187.01 243.471C1187.44 241.871 1188.58 240.568 1190.1 239.932L1190.41 239.814C1194.93 238.239 1196.58 232.695 1193.65 228.904L1193.34 228.501C1192.26 227.094 1191.89 225.26 1192.35 223.543L1236.43 59.0404C1237.75 54.1112 1242.81 51.1858 1247.74 52.5066Z" stroke="url(#paint4_linear_1325_1174)" stroke-width="1.68"/>
<path d="M1247.74 52.5066L1406.98 95.1743L1351.32 302.923C1350 307.852 1344.93 310.777 1340 309.457L1186.77 268.4C1183.45 267.51 1181.48 264.098 1182.37 260.778L1187.01 243.471C1187.44 241.871 1188.58 240.568 1190.1 239.932L1190.41 239.814C1194.93 238.239 1196.58 232.695 1193.65 228.904L1193.34 228.501C1192.26 227.094 1191.89 225.26 1192.35 223.543L1236.43 59.0404C1237.75 54.1112 1242.81 51.1858 1247.74 52.5066Z" stroke="url(#paint5_linear_1325_1174)" stroke-opacity="0.5" stroke-width="1.68"/>
<g clip-path="url(#clip3_1325_1174)">
<path d="M1341.38 295.471C1342.43 294.525 1343.41 293.653 1343.69 292.597C1343.87 291.911 1343.78 291.18 1343.42 290.565C1343.07 289.949 1342.48 289.5 1341.79 289.317C1341.11 289.133 1340.38 289.229 1339.76 289.584C1339.15 289.939 1338.7 290.524 1338.51 291.211C1338.23 292.267 1338.64 293.509 1339.08 294.856L1339.17 295.129C1339.02 294.936 1338.88 294.755 1338.76 294.584C1338.05 293.65 1337.6 293.045 1336.7 292.804C1336.01 292.621 1335.28 292.717 1334.67 293.072C1334.05 293.427 1333.6 294.012 1333.42 294.698C1333.24 295.385 1333.33 296.116 1333.69 296.731C1334.04 297.346 1334.63 297.795 1335.31 297.979C1336.37 298.262 1337.61 297.855 1338.96 297.413L1338.98 297.405C1338.53 298.865 1337.72 299.622 1336.84 300.457L1336.5 300.782C1336.14 301.127 1336.31 301.711 1336.79 301.84L1339.87 302.666C1340.35 302.794 1340.79 302.373 1340.65 301.895L1340.52 301.442C1340.17 300.276 1339.85 299.219 1340.19 297.728L1340.2 297.746C1341.15 298.802 1342.02 299.776 1343.08 300.059C1343.76 300.242 1344.49 300.146 1345.11 299.791C1345.72 299.436 1346.17 298.851 1346.36 298.165C1346.54 297.478 1346.44 296.747 1346.09 296.132C1345.73 295.517 1345.15 295.068 1344.46 294.884C1343.57 294.644 1342.87 294.94 1341.79 295.398C1341.6 295.482 1341.39 295.571 1341.16 295.663L1341.38 295.471Z" fill="#11C76F" fill-opacity="0.5"/>
</g>
<g clip-path="url(#clip4_1325_1174)">
<g filter="url(#filter3_i_1325_1174)">
<path d="M1299.13 179.729C1303.36 175.942 1307.25 172.454 1308.38 168.232C1309.12 165.487 1308.73 162.562 1307.31 160.102C1305.89 157.641 1303.55 155.845 1300.8 155.11C1298.06 154.374 1295.13 154.759 1292.67 156.18C1290.21 157.601 1288.42 159.941 1287.68 162.686C1286.55 166.91 1288.18 171.878 1289.94 177.268L1290.3 178.359C1289.71 177.588 1289.16 176.862 1288.65 176.18C1285.83 172.442 1284.01 170.022 1280.43 169.061C1277.68 168.325 1274.76 168.71 1272.3 170.131C1269.84 171.552 1268.04 173.892 1267.31 176.637C1266.57 179.381 1266.96 182.306 1268.38 184.767C1269.8 187.227 1272.14 189.023 1274.88 189.758C1279.11 190.891 1284.07 189.263 1289.46 187.496L1289.56 187.465C1287.73 193.302 1284.52 196.329 1280.98 199.67L1279.61 200.972C1278.17 202.351 1278.85 204.688 1280.78 205.203L1293.1 208.505C1295.02 209.02 1296.78 207.337 1296.23 205.425L1295.69 203.612C1294.29 198.947 1293.03 194.72 1294.37 188.754L1294.43 188.827C1298.22 193.053 1301.71 196.946 1305.93 198.077C1308.67 198.813 1311.6 198.428 1314.06 197.007C1316.52 195.586 1318.31 193.246 1319.05 190.501C1319.79 187.757 1319.4 184.832 1317.98 182.372C1316.56 179.911 1314.22 178.115 1311.47 177.38C1307.89 176.419 1305.1 177.605 1300.8 179.435C1300.01 179.772 1299.17 180.125 1298.27 180.495L1299.13 179.729Z" fill="url(#paint6_radial_1325_1174)"/>
</g>
<path d="M1300.7 155.515C1303.33 156.222 1305.58 157.947 1306.95 160.311C1308.31 162.675 1308.68 165.486 1307.97 168.123L1307.86 168.501C1307.28 170.381 1306.12 172.133 1304.6 173.867C1303.38 175.255 1301.95 176.614 1300.41 178.008L1298.85 179.415L1297.99 180.182L1298.43 180.883C1299.33 180.513 1300.18 180.16 1300.96 179.822C1305.29 177.981 1307.94 176.868 1311.37 177.785C1314 178.491 1316.25 180.217 1317.62 182.582C1318.98 184.946 1319.35 187.755 1318.64 190.392C1317.94 193.029 1316.21 195.278 1313.85 196.643C1311.48 198.008 1308.67 198.378 1306.04 197.671C1304.01 197.129 1302.14 195.919 1300.29 194.297C1298.91 193.08 1297.55 191.645 1296.15 190.11L1294.74 188.547L1294.68 188.477L1294.14 187.858L1293.96 188.663C1292.59 194.744 1293.89 199.065 1295.29 203.733L1295.29 203.732L1295.83 205.54L1295.82 205.541C1296.28 207.115 1294.84 208.536 1293.21 208.099L1280.88 204.797C1279.25 204.36 1278.72 202.411 1279.9 201.276L1279.9 201.277L1281.27 199.976C1284.81 196.633 1288.1 193.541 1289.96 187.591L1290.2 186.803L1289.42 187.067L1289.33 187.097C1286.63 187.982 1284.07 188.822 1281.65 189.303C1279.24 189.783 1277.02 189.895 1274.99 189.352C1272.35 188.646 1270.1 186.921 1268.74 184.556C1267.37 182.192 1267.01 179.382 1267.71 176.745C1268.42 174.108 1270.14 171.86 1272.51 170.495C1274.87 169.13 1277.68 168.759 1280.32 169.466C1283.31 170.269 1285.02 172.122 1287.3 175.091L1288.31 176.432C1288.82 177.116 1289.38 177.844 1289.97 178.616L1290.7 178.228L1290.34 177.136C1289.46 174.436 1288.62 171.872 1288.14 169.458C1287.66 167.046 1287.55 164.819 1288.09 162.794L1288.23 162.304C1289.01 159.879 1290.67 157.823 1292.88 156.543C1295.25 155.178 1298.06 154.809 1300.7 155.515Z" stroke="url(#paint7_radial_1325_1174)" stroke-width="0.84"/>
</g>
<g clip-path="url(#clip5_1325_1174)">
<path d="M1249.48 65.9958C1250.54 65.049 1251.51 64.1771 1251.8 63.1215C1251.98 62.4353 1251.88 61.7042 1251.53 61.089C1251.17 60.4738 1250.59 60.0249 1249.9 59.841C1249.22 59.6572 1248.48 59.7534 1247.87 60.1086C1247.25 60.4638 1246.81 61.0488 1246.62 61.735C1246.34 62.7912 1246.75 64.033 1247.19 65.3805L1247.28 65.6534C1247.13 65.4607 1246.99 65.279 1246.86 65.1085C1246.16 64.1741 1245.7 63.569 1244.81 63.3288C1244.12 63.1449 1243.39 63.2412 1242.78 63.5964C1242.16 63.9516 1241.71 64.5366 1241.53 65.2228C1241.34 65.9089 1241.44 66.64 1241.79 67.2552C1242.15 67.8704 1242.73 68.3194 1243.42 68.5032C1244.48 68.7862 1245.72 68.3793 1247.07 67.9376L1247.09 67.9298C1246.63 69.3891 1245.83 70.146 1244.95 70.9811L1244.6 71.3065C1244.24 71.6513 1244.41 72.2355 1244.89 72.3643L1247.98 73.1899C1248.46 73.3187 1248.9 72.8978 1248.76 72.4198L1248.62 71.9665C1248.27 70.8004 1247.96 69.7437 1248.29 68.2522L1248.31 68.2703C1249.26 69.3268 1250.13 70.3001 1251.18 70.5829C1251.87 70.7668 1252.6 70.6705 1253.22 70.3154C1253.83 69.9602 1254.28 69.3751 1254.46 68.689C1254.65 68.0028 1254.55 67.2717 1254.2 66.6565C1253.84 66.0413 1253.26 65.5924 1252.57 65.4085C1251.67 65.1683 1250.98 65.4649 1249.9 65.9224C1249.7 66.0067 1249.49 66.095 1249.27 66.1872L1249.48 65.9958Z" fill="#11C76F" fill-opacity="0.5"/>
</g>
<g filter="url(#filter4_i_1325_1174)">
<circle cx="1375.92" cy="95.0816" r="6.3" transform="rotate(15 1375.92 95.0816)" fill="#101010"/>
</g>
<circle cx="1375.92" cy="95.0816" r="5.88" transform="rotate(15 1375.92 95.0816)" stroke="#11C76F" stroke-width="0.84"/>
<g filter="url(#filter5_i_1325_1174)">
<circle cx="1397.83" cy="100.952" r="6.3" transform="rotate(15 1397.83 100.952)" fill="#101010"/>
</g>
<circle cx="1397.83" cy="100.952" r="5.88" transform="rotate(15 1397.83 100.952)" stroke="#11C76F" stroke-width="0.84"/>
<path d="M1249.44 263.444C1249.12 264.639 1249.83 265.867 1251.02 266.188C1252.22 266.508 1253.45 265.799 1253.77 264.604C1254.09 263.409 1253.38 262.18 1252.18 261.86C1250.99 261.54 1249.76 262.249 1249.44 263.444ZM1234.13 281.699L1234.54 281.807L1236.38 274.941L1235.97 274.832L1235.56 274.724L1233.72 281.59L1234.13 281.699ZM1238.03 273.644L1237.92 274.05L1239.52 274.48L1239.63 274.074L1239.74 273.669L1238.14 273.239L1238.03 273.644ZM1241.69 272.887L1242.1 272.995L1242.59 271.147L1242.19 271.038L1241.78 270.93L1241.28 272.778L1241.69 272.887ZM1244.24 269.851L1244.13 270.256L1247.92 271.271L1248.03 270.866L1248.14 270.46L1244.35 269.445L1244.24 269.851ZM1250.09 269.678L1250.49 269.786L1252.01 264.133L1251.6 264.024L1251.2 263.915L1249.68 269.569L1250.09 269.678ZM1248.03 270.866L1247.92 271.271C1249.04 271.572 1250.19 270.907 1250.49 269.786L1250.09 269.678L1249.68 269.569C1249.5 270.241 1248.81 270.64 1248.14 270.46L1248.03 270.866ZM1242.19 271.038L1242.59 271.147C1242.77 270.475 1243.46 270.076 1244.13 270.256L1244.24 269.851L1244.35 269.445C1243.23 269.145 1242.08 269.81 1241.78 270.93L1242.19 271.038ZM1239.63 274.074L1239.52 274.48C1240.64 274.78 1241.8 274.116 1242.1 272.995L1241.69 272.887L1241.28 272.778C1241.1 273.45 1240.41 273.849 1239.74 273.669L1239.63 274.074ZM1235.97 274.832L1236.38 274.941C1236.56 274.269 1237.25 273.87 1237.92 274.05L1238.03 273.644L1238.14 273.239C1237.02 272.938 1235.86 273.603 1235.56 274.724L1235.97 274.832Z" fill="#11C76F" fill-opacity="0.2"/>
<path d="M1257.95 260.785C1257.63 261.98 1258.34 263.208 1259.53 263.529C1260.73 263.849 1261.96 263.14 1262.28 261.945C1262.6 260.75 1261.89 259.521 1260.69 259.201C1259.5 258.881 1258.27 259.59 1257.95 260.785ZM1250.07 286.23L1250.48 286.339L1252.32 279.473L1251.91 279.364L1251.51 279.255L1249.67 286.122L1250.07 286.23ZM1253.97 278.176L1253.86 278.582L1256.44 279.272L1256.55 278.866L1256.65 278.46L1254.08 277.77L1253.97 278.176ZM1258.6 277.678L1259.01 277.787L1259.71 275.165L1259.31 275.056L1258.9 274.948L1258.2 277.57L1258.6 277.678ZM1257.35 271.673L1257.76 271.782L1260.52 261.474L1260.11 261.365L1259.71 261.256L1256.95 271.565L1257.35 271.673ZM1258.33 273.365L1258.44 272.959C1257.92 272.822 1257.62 272.295 1257.76 271.782L1257.35 271.673L1256.95 271.565C1256.69 272.525 1257.26 273.513 1258.22 273.771L1258.33 273.365ZM1259.31 275.056L1259.71 275.165C1259.97 274.204 1259.4 273.217 1258.44 272.959L1258.33 273.365L1258.22 273.771C1258.73 273.908 1259.04 274.435 1258.9 274.948L1259.31 275.056ZM1256.55 278.866L1256.44 279.272C1257.56 279.572 1258.71 278.907 1259.01 277.787L1258.6 277.678L1258.2 277.57C1258.02 278.242 1257.33 278.641 1256.65 278.46L1256.55 278.866ZM1251.91 279.364L1252.32 279.473C1252.5 278.8 1253.19 278.402 1253.86 278.582L1253.97 278.176L1254.08 277.77C1252.96 277.47 1251.81 278.135 1251.51 279.255L1251.91 279.364Z" fill="#11C76F" fill-opacity="0.2"/>
</g>
<g filter="url(#filter6_f_1325_1174)">
<path d="M80.4723 105.231L-55.2497 165.175L22.9549 342.243C24.8105 346.444 29.7211 348.346 33.9223 346.49L164.521 288.81C167.35 287.56 168.631 284.253 167.382 281.424L160.867 266.672C160.264 265.309 159.066 264.308 157.629 263.953L157.339 263.89C153.232 263.138 151.008 258.702 152.763 254.993L152.945 254.636L153.166 254.234C153.938 252.832 154.011 251.151 153.365 249.687L91.4397 109.479L91.2571 109.092C89.2783 105.162 84.5425 103.434 80.4723 105.231Z" fill="#11C76F" fill-opacity="0.2"/>
<path d="M80.4723 105.231L-55.2497 165.175L22.9549 342.243C24.8105 346.444 29.7211 348.346 33.9223 346.49L164.521 288.81C167.35 287.56 168.631 284.253 167.382 281.424L160.867 266.672C160.264 265.309 159.066 264.308 157.629 263.953L157.339 263.89C153.232 263.138 151.008 258.702 152.763 254.993L152.945 254.636L153.166 254.234C153.938 252.832 154.011 251.151 153.365 249.687L91.4397 109.479L91.2571 109.092C89.2783 105.162 84.5425 103.434 80.4723 105.231Z" stroke="url(#paint8_linear_1325_1174)" stroke-width="1.512"/>
<path d="M80.4723 105.231L-55.2497 165.175L22.9549 342.243C24.8105 346.444 29.7211 348.346 33.9223 346.49L164.521 288.81C167.35 287.56 168.631 284.253 167.382 281.424L160.867 266.672C160.264 265.309 159.066 264.308 157.629 263.953L157.339 263.89C153.232 263.138 151.008 258.702 152.763 254.993L152.945 254.636L153.166 254.234C153.938 252.832 154.011 251.151 153.365 249.687L91.4397 109.479L91.2571 109.092C89.2783 105.162 84.5425 103.434 80.4723 105.231Z" stroke="url(#paint9_linear_1325_1174)" stroke-opacity="0.5" stroke-width="1.512"/>
<g clip-path="url(#clip6_1325_1174)">
<path d="M30.7683 334.242C29.698 333.546 28.7119 332.905 28.3145 332.005C28.0562 331.421 28.0408 330.757 28.2717 330.161C28.5026 329.565 28.9609 329.085 29.5458 328.826C30.1306 328.568 30.7941 328.553 31.3903 328.784C31.9865 329.015 32.4665 329.473 32.7248 330.058C33.1224 330.958 32.9321 332.118 32.7254 333.378L32.6832 333.633C32.7886 333.441 32.8863 333.26 32.9762 333.091C33.4728 332.163 33.7938 331.562 34.5578 331.225C35.1427 330.966 35.8062 330.951 36.4024 331.182C36.9985 331.413 37.4786 331.871 37.7369 332.456C37.9952 333.041 38.0106 333.704 37.7797 334.3C37.5488 334.896 37.0905 335.376 36.5057 335.635C35.6054 336.032 34.4449 335.842 33.1855 335.635L33.1641 335.632C33.7707 336.866 34.5889 337.429 35.4921 338.049L35.8421 338.291C36.2086 338.548 36.1382 339.091 35.7286 339.272L33.1022 340.432C32.6926 340.613 32.2438 340.299 32.3006 339.855L32.3575 339.433C32.5073 338.348 32.6428 337.365 32.1387 336.084L32.127 336.103C31.431 337.173 30.79 338.159 29.8903 338.557C29.3054 338.815 28.642 338.83 28.0458 338.599C27.4496 338.368 26.9695 337.91 26.7112 337.325C26.4529 336.741 26.4375 336.077 26.6684 335.481C26.8993 334.885 27.3576 334.405 27.9424 334.146C28.7065 333.809 29.3669 333.976 30.3874 334.235C30.5733 334.282 30.7726 334.332 30.9853 334.383L30.7683 334.242Z" fill="#11C76F" fill-opacity="0.5"/>
</g>
<g clip-path="url(#clip7_1325_1174)">
<g filter="url(#filter7_i_1325_1174)">
<path d="M52.3496 225.472C48.0683 222.688 44.124 220.124 42.5346 216.525C41.5013 214.186 41.4398 211.532 42.3633 209.147C43.2869 206.763 45.12 204.842 47.4594 203.809C49.7987 202.776 52.4527 202.714 54.8375 203.638C57.2222 204.561 59.1424 206.395 60.1756 208.734C61.7661 212.335 61.0046 216.977 60.1778 222.015L60.0093 223.035C60.4309 222.268 60.8216 221.545 61.1813 220.868C63.1676 217.155 64.4514 214.751 67.5077 213.401C69.8471 212.368 72.501 212.307 74.8858 213.23C77.2706 214.154 79.1908 215.987 80.224 218.326C81.2572 220.666 81.3188 223.32 80.3952 225.704C79.4716 228.089 77.6385 230.009 75.2991 231.043C71.6982 232.633 67.0558 231.872 62.0183 231.045L61.9326 231.03C64.3592 235.969 67.6321 238.218 71.2447 240.7L72.6447 241.668C74.1109 242.696 73.829 244.868 72.1906 245.592L61.6853 250.232C60.0469 250.955 58.2516 249.701 58.4789 247.924L58.7063 246.237C59.3055 241.896 59.8475 237.962 57.8311 232.841L57.7844 232.915C55.0003 237.196 52.4363 241.14 48.8375 242.73C46.4982 243.763 43.8442 243.825 41.4594 242.901C39.0747 241.977 37.1545 240.144 36.1212 237.805C35.088 235.466 35.0265 232.812 35.95 230.427C36.8736 228.042 38.7067 226.122 41.0461 225.089C44.1024 223.739 46.7438 224.409 50.826 225.442C51.5695 225.633 52.3666 225.831 53.2174 226.035L52.3496 225.472Z" fill="url(#paint10_radial_1325_1174)"/>
</g>
<path d="M47.612 204.155C45.3644 205.148 43.6034 206.993 42.7161 209.284C41.8287 211.575 41.8875 214.125 42.8802 216.373L43.0301 216.693C43.8107 218.284 45.0837 219.683 46.6756 221.014C48.3746 222.436 50.4099 223.76 52.5548 225.155L53.4225 225.718L53.1292 226.402C52.2767 226.198 51.4772 226 50.7315 225.808L50.732 225.807C46.6263 224.768 44.1164 224.146 41.1988 225.435C38.9513 226.428 37.1899 228.272 36.3025 230.563C35.4152 232.854 35.4741 235.404 36.4666 237.652C37.4593 239.9 39.3049 241.661 41.5961 242.549C43.8873 243.436 46.437 243.376 48.6845 242.384C50.4093 241.622 51.906 240.287 53.3265 238.589C54.3926 237.315 55.4042 235.851 56.4319 234.294L57.4678 232.709L57.5127 232.639L57.9107 232.012L58.1825 232.703C60.2381 237.922 59.6808 241.944 59.0811 246.289L59.0807 246.288L58.8538 247.971L58.8542 247.972C58.6671 249.434 60.1424 250.5 61.5326 249.886L72.038 245.246C73.4274 244.633 73.6342 242.826 72.4298 241.978L71.0297 241.01L71.0302 241.009C67.4155 238.526 64.0666 236.231 61.5932 231.196L61.266 230.53L61.9971 230.658L62.08 230.672C64.6039 231.086 67 231.479 69.2132 231.573C71.4249 231.666 73.4203 231.459 75.1463 230.697C77.3938 229.704 79.1551 227.859 80.0426 225.568C80.93 223.277 80.8708 220.726 79.8781 218.479C78.8854 216.231 77.0401 214.47 74.749 213.583C72.4578 212.695 69.9081 212.755 67.6606 213.748C64.7428 215.036 63.5131 217.311 61.515 221.046L61.5146 221.045C61.154 221.724 60.7632 222.448 60.341 223.217L59.6364 222.973L59.805 221.953L60.1072 220.085C60.3967 218.242 60.6356 216.48 60.7059 214.82C60.7996 212.608 60.5922 210.613 59.8299 208.887L59.6337 208.472C58.6047 206.423 56.849 204.823 54.7008 203.991C52.4095 203.103 49.8596 203.162 47.612 204.155Z" stroke="url(#paint11_radial_1325_1174)" stroke-width="0.756"/>
</g>
<g clip-path="url(#clip8_1325_1174)">
<path d="M80.7908 117.467C79.7204 116.771 78.7344 116.13 78.337 115.231C78.0787 114.646 78.0633 113.982 78.2942 113.386C78.5251 112.79 78.9834 112.31 79.5682 112.052C80.1531 111.793 80.8165 111.778 81.4127 112.009C82.0089 112.24 82.489 112.698 82.7473 113.283C83.1449 114.183 82.9545 115.344 82.7478 116.603L82.7057 116.858C82.8111 116.666 82.9088 116.486 82.9987 116.316C83.4953 115.388 83.8162 114.787 84.5803 114.45C85.1651 114.191 85.8286 114.176 86.4248 114.407C87.021 114.638 87.5011 115.096 87.7594 115.681C88.0177 116.266 88.0331 116.929 87.8022 117.525C87.5713 118.122 87.113 118.602 86.5282 118.86C85.6279 119.257 84.4673 119.067 83.2079 118.86L83.1865 118.857C83.7932 120.092 84.6114 120.654 85.5145 121.274L85.8645 121.516C86.2311 121.773 86.1606 122.316 85.751 122.497L83.1247 123.657C82.7151 123.838 82.2663 123.524 82.3231 123.08L82.3799 122.659C82.5298 121.573 82.6653 120.59 82.1611 119.31L82.1495 119.328C81.4534 120.398 80.8124 121.384 79.9127 121.782C79.3279 122.04 78.6644 122.055 78.0682 121.824C77.472 121.594 76.992 121.135 76.7337 120.55C76.4754 119.966 76.46 119.302 76.6909 118.706C76.9218 118.11 77.38 117.63 77.9649 117.371C78.729 117.034 79.3893 117.201 80.4099 117.46C80.5957 117.508 80.795 117.557 81.0077 117.608L80.7908 117.467Z" fill="#11C76F" fill-opacity="0.5"/>
</g>
<path d="M108.104 293.059C108.554 294.078 108.093 295.268 107.074 295.718C106.056 296.168 104.865 295.707 104.416 294.688C103.966 293.67 104.427 292.48 105.445 292.03C106.464 291.58 107.654 292.041 108.104 293.059ZM124.242 307.179L123.896 307.332L121.311 301.479L121.657 301.326L122.003 301.174L124.588 307.026L124.242 307.179ZM119.663 300.554L119.816 300.9L118.447 301.504L118.295 301.158L118.142 300.813L119.51 300.208L119.663 300.554ZM116.301 300.386L115.955 300.539L115.259 298.964L115.605 298.811L115.951 298.658L116.647 300.234L116.301 300.386ZM113.611 298.039L113.764 298.385L110.535 299.811L110.382 299.465L110.229 299.119L113.458 297.693L113.611 298.039ZM108.388 298.693L108.042 298.845L105.914 294.027L106.26 293.874L106.606 293.721L108.734 298.54L108.388 298.693ZM110.382 299.465L110.535 299.811C109.58 300.232 108.464 299.8 108.042 298.845L108.388 298.693L108.734 298.54C108.987 299.113 109.656 299.372 110.229 299.119L110.382 299.465ZM115.605 298.811L115.259 298.964C115.006 298.391 114.337 298.132 113.764 298.385L113.611 298.039L113.458 297.693C114.413 297.271 115.529 297.704 115.951 298.658L115.605 298.811ZM118.295 301.158L118.447 301.504C117.493 301.926 116.377 301.494 115.955 300.539L116.301 300.386L116.647 300.234C116.9 300.806 117.569 301.066 118.142 300.813L118.295 301.158ZM121.657 301.326L121.311 301.479C121.058 300.906 120.389 300.647 119.816 300.9L119.663 300.554L119.51 300.208C120.465 299.787 121.581 300.219 122.003 301.174L121.657 301.326Z" fill="#11C76F" fill-opacity="0.2"/>
<path d="M100.167 291.871C100.617 292.889 100.156 294.079 99.1377 294.529C98.1192 294.979 96.9289 294.518 96.4791 293.5C96.0293 292.481 96.4903 291.291 97.5087 290.841C98.5272 290.391 99.7175 290.852 100.167 291.871ZM110.689 313.412L110.343 313.564L107.759 307.712L108.104 307.559L108.45 307.406L111.035 313.259L110.689 313.412ZM106.11 306.787L106.263 307.133L104.068 308.102L103.915 307.756L103.762 307.411L105.958 306.441L106.11 306.787ZM101.921 306.984L101.575 307.137L100.588 304.902L100.934 304.75L101.28 304.597L102.267 306.831L101.921 306.984ZM102.204 301.471L101.858 301.624L97.9775 292.838L98.3232 292.685L98.669 292.532L102.55 301.318L102.204 301.471ZM101.569 303.11L101.416 302.765C101.853 302.572 102.051 302.061 101.858 301.624L102.204 301.471L102.55 301.318C102.911 302.137 102.541 303.094 101.722 303.456L101.569 303.11ZM100.934 304.75L100.588 304.902C100.227 304.083 100.597 303.126 101.416 302.765L101.569 303.11L101.722 303.456C101.285 303.649 101.087 304.16 101.28 304.597L100.934 304.75ZM103.915 307.756L104.068 308.102C103.113 308.524 101.997 308.092 101.575 307.137L101.921 306.984L102.267 306.831C102.52 307.404 103.189 307.664 103.762 307.411L103.915 307.756ZM108.104 307.559L107.759 307.712C107.506 307.139 106.836 306.88 106.263 307.133L106.11 306.787L105.958 306.441C106.912 306.019 108.028 306.452 108.45 307.406L108.104 307.559Z" fill="#11C76F" fill-opacity="0.2"/>
</g>
<g filter="url(#filter8_d_1325_1174)">
<path d="M191.735 39.3586L32.4965 82.0264L88.1626 289.775C89.4834 294.704 94.5503 297.63 99.4795 296.309L252.707 255.252C256.026 254.362 257.997 250.95 257.107 247.63L252.47 230.323C252.041 228.723 250.895 227.42 249.379 226.784L249.071 226.666C244.549 225.091 242.898 219.548 245.825 215.756L246.136 215.353C247.222 213.946 247.59 212.112 247.13 210.395L203.052 45.8925C201.731 40.9632 196.664 38.0378 191.735 39.3586Z" fill="#11C76F" fill-opacity="0.2"/>
<path d="M191.735 39.3586L32.4965 82.0264L88.1626 289.775C89.4834 294.704 94.5503 297.63 99.4795 296.309L252.707 255.252C256.026 254.362 257.997 250.95 257.107 247.63L252.47 230.323C252.041 228.723 250.895 227.42 249.379 226.784L249.071 226.666C244.549 225.091 242.898 219.548 245.825 215.756L246.136 215.353C247.222 213.946 247.59 212.112 247.13 210.395L203.052 45.8925C201.731 40.9632 196.664 38.0378 191.735 39.3586Z" stroke="url(#paint12_linear_1325_1174)" stroke-width="1.68"/>
<path d="M191.735 39.3586L32.4965 82.0264L88.1626 289.775C89.4834 294.704 94.5503 297.63 99.4795 296.309L252.707 255.252C256.026 254.362 257.997 250.95 257.107 247.63L252.47 230.323C252.041 228.723 250.895 227.42 249.379 226.784L249.071 226.666C244.549 225.091 242.898 219.548 245.825 215.756L246.136 215.353C247.222 213.946 247.59 212.112 247.13 210.395L203.052 45.8925C201.731 40.9632 196.664 38.0378 191.735 39.3586Z" stroke="url(#paint13_linear_1325_1174)" stroke-opacity="0.5" stroke-width="1.68"/>
<g clip-path="url(#clip9_1325_1174)">
<path d="M98.103 282.323C97.0465 281.377 96.0732 280.505 95.7903 279.449C95.6065 278.763 95.7027 278.032 96.0579 277.417C96.4131 276.801 96.9981 276.353 97.6843 276.169C98.3705 275.985 99.1016 276.081 99.7168 276.436C100.332 276.791 100.781 277.376 100.965 278.063C101.248 279.119 100.841 280.361 100.399 281.708L100.309 281.981C100.458 281.788 100.596 281.607 100.723 281.436C101.427 280.502 101.882 279.897 102.778 279.656C103.464 279.473 104.196 279.569 104.811 279.924C105.426 280.279 105.875 280.864 106.059 281.55C106.243 282.237 106.146 282.968 105.791 283.583C105.436 284.198 104.851 284.647 104.165 284.831C103.109 285.114 101.867 284.707 100.519 284.265L100.496 284.257C100.952 285.717 101.754 286.474 102.64 287.309L102.983 287.634C103.342 287.979 103.172 288.563 102.691 288.692L99.6098 289.518C99.1293 289.646 98.6899 289.225 98.8281 288.747L98.9624 288.294C99.312 287.128 99.6285 286.071 99.2934 284.58L99.2774 284.598C98.3307 285.654 97.4587 286.628 96.4031 286.911C95.717 287.094 94.9859 286.998 94.3707 286.643C93.7554 286.288 93.3065 285.703 93.1227 285.017C92.9388 284.33 93.0351 283.599 93.3903 282.984C93.7455 282.369 94.3305 281.92 95.0167 281.736C95.9131 281.496 96.6096 281.793 97.6861 282.25C97.882 282.334 98.0923 282.423 98.3172 282.515L98.103 282.323Z" fill="#11C76F" fill-opacity="0.5"/>
</g>
<g clip-path="url(#clip10_1325_1174)">
<g filter="url(#filter9_i_1325_1174)">
<path d="M140.349 166.581C136.124 162.794 132.23 159.306 131.099 155.084C130.363 152.339 130.748 149.414 132.169 146.954C133.59 144.493 135.93 142.697 138.675 141.962C141.419 141.226 144.344 141.611 146.805 143.032C149.265 144.453 151.061 146.793 151.797 149.538C152.929 153.763 151.301 158.73 149.534 164.12L149.175 165.211C149.769 164.44 150.321 163.714 150.831 163.032C153.645 159.294 155.465 156.874 159.051 155.913C161.795 155.177 164.72 155.562 167.181 156.983C169.641 158.404 171.437 160.744 172.173 163.489C172.908 166.233 172.523 169.158 171.102 171.619C169.681 174.079 167.341 175.875 164.597 176.611C160.372 177.743 155.405 176.115 150.015 174.348L149.923 174.317C151.745 180.154 154.955 183.182 158.498 186.522L159.87 187.824C161.305 189.203 160.625 191.54 158.702 192.055L146.377 195.357C144.455 195.872 142.697 194.189 143.25 192.277L143.787 190.464C145.186 185.799 146.452 181.572 145.111 175.606L145.047 175.679C141.26 179.905 137.772 183.798 133.55 184.929C130.805 185.665 127.881 185.28 125.42 183.859C122.959 182.438 121.164 180.098 120.428 177.354C119.693 174.609 120.078 171.684 121.499 169.224C122.919 166.763 125.259 164.967 128.004 164.232C131.59 163.271 134.376 164.457 138.682 166.287C139.465 166.624 140.307 166.977 141.206 167.347L140.349 166.581Z" fill="url(#paint14_radial_1325_1174)"/>
</g>
<path d="M138.783 142.367C136.146 143.074 133.898 144.799 132.533 147.163C131.168 149.527 130.798 152.338 131.504 154.975L131.614 155.353C132.199 157.233 133.359 158.985 134.879 160.719C136.097 162.107 137.532 163.466 139.066 164.86L140.629 166.267L141.486 167.034L141.047 167.735C140.146 167.365 139.303 167.012 138.517 166.674C134.186 164.833 131.536 163.72 128.113 164.637C125.476 165.343 123.227 167.069 121.862 169.434C120.497 171.798 120.128 174.607 120.834 177.244C121.541 179.881 123.266 182.13 125.63 183.495C127.994 184.86 130.804 185.23 133.441 184.523C135.465 183.981 137.336 182.771 139.185 181.149C140.573 179.932 141.933 178.497 143.327 176.962L144.734 175.399L144.795 175.329L145.34 174.71L145.521 175.515C146.887 181.596 145.589 185.917 144.19 190.585L144.19 190.584L143.653 192.393L143.654 192.393C143.199 193.967 144.637 195.388 146.268 194.951L158.594 191.649C160.224 191.212 160.759 189.263 159.581 188.128L159.581 188.129L158.21 186.828C154.664 183.485 151.379 180.393 149.522 174.443L149.277 173.655L150.058 173.919L150.146 173.949C152.847 174.834 155.41 175.675 157.824 176.155C160.237 176.635 162.463 176.747 164.488 176.204C167.125 175.498 169.374 173.773 170.739 171.408C172.104 169.044 172.473 166.234 171.767 163.597C171.06 160.96 169.335 158.712 166.971 157.347C164.607 155.982 161.796 155.611 159.159 156.318C156.164 157.121 154.458 158.974 152.182 161.943L151.167 163.284C150.655 163.968 150.102 164.696 149.507 165.468L148.776 165.08L149.135 163.988C150.02 161.288 150.86 158.724 151.34 156.31C151.82 153.898 151.933 151.671 151.391 149.646L151.246 149.156C150.466 146.732 148.811 144.675 146.595 143.395C144.23 142.03 141.42 141.661 138.783 142.367Z" stroke="url(#paint15_radial_1325_1174)" stroke-width="0.84"/>
</g>
<g clip-path="url(#clip11_1325_1174)">
<path d="M189.996 52.8478C188.939 51.9011 187.966 51.0291 187.683 49.9735C187.499 49.2874 187.595 48.5562 187.95 47.941C188.306 47.3258 188.891 46.8769 189.577 46.6931C190.263 46.5092 190.994 46.6055 191.609 46.9606C192.225 47.3158 192.673 47.9009 192.857 48.587C193.14 49.6433 192.733 50.8851 192.292 52.2325L192.202 52.5055C192.35 52.3127 192.488 52.1311 192.616 51.9605C193.32 51.0261 193.774 50.421 194.671 50.1808C195.357 49.997 196.088 50.0932 196.703 50.4484C197.319 50.8036 197.767 51.3886 197.951 52.0748C198.135 52.761 198.039 53.4921 197.684 54.1073C197.329 54.7225 196.744 55.1714 196.057 55.3553C195.001 55.6383 193.759 55.2313 192.412 54.7896L192.389 54.7819C192.844 56.2411 193.647 56.998 194.533 57.8331L194.876 58.1585C195.234 58.5034 195.064 59.0876 194.584 59.2163L191.502 60.042C191.022 60.1707 190.583 59.7498 190.721 59.2719L190.855 58.8186C191.205 57.6524 191.521 56.5957 191.186 55.1042L191.17 55.1224C190.223 56.1788 189.351 57.1521 188.296 57.435C187.61 57.6189 186.878 57.5226 186.263 57.1674C185.648 56.8122 185.199 56.2272 185.015 55.541C184.831 54.8548 184.928 54.1237 185.283 53.5085C185.638 52.8933 186.223 52.4444 186.909 52.2606C187.806 52.0204 188.502 52.3169 189.579 52.7744C189.775 52.8587 189.985 52.947 190.21 53.0393L189.996 52.8478Z" fill="#11C76F" fill-opacity="0.5"/>
</g>
<g filter="url(#filter10_i_1325_1174)">
<circle cx="6.3" cy="6.3" r="6.3" transform="matrix(-0.965926 0.258819 0.258819 0.965926 68.0098 74.2178)" fill="#101010"/>
</g>
<circle cx="6.3" cy="6.3" r="5.88" transform="matrix(-0.965926 0.258819 0.258819 0.965926 68.0098 74.2178)" stroke="#11C76F" stroke-width="0.84"/>
<g filter="url(#filter11_i_1325_1174)">
<circle cx="6.3" cy="6.3" r="6.3" transform="matrix(-0.965926 0.258819 0.258819 0.965926 46.1025 80.0879)" fill="#101010"/>
</g>
<circle cx="6.3" cy="6.3" r="5.88" transform="matrix(-0.965926 0.258819 0.258819 0.965926 46.1025 80.0879)" stroke="#11C76F" stroke-width="0.84"/>
<path d="M190.038 250.296C190.359 251.491 189.649 252.719 188.454 253.04C187.26 253.36 186.031 252.651 185.711 251.456C185.391 250.261 186.1 249.033 187.295 248.712C188.49 248.392 189.718 249.101 190.038 250.296ZM205.349 268.551L204.943 268.66L203.103 261.793L203.509 261.684L203.915 261.576L205.755 268.442L205.349 268.551ZM201.452 260.496L201.56 260.902L199.955 261.332L199.846 260.927L199.737 260.521L201.343 260.091L201.452 260.496ZM197.788 259.739L197.383 259.847L196.888 257.999L197.293 257.891L197.699 257.782L198.194 259.63L197.788 259.739ZM195.236 256.703L195.344 257.108L191.556 258.123L191.447 257.718L191.339 257.312L195.127 256.297L195.236 256.703ZM189.39 256.53L188.984 256.638L187.469 250.985L187.875 250.876L188.28 250.767L189.795 256.421L189.39 256.53ZM191.447 257.718L191.556 258.123C190.436 258.424 189.284 257.759 188.984 256.638L189.39 256.53L189.795 256.421C189.975 257.093 190.666 257.492 191.339 257.312L191.447 257.718ZM197.293 257.891L196.888 257.999C196.707 257.327 196.017 256.928 195.344 257.108L195.236 256.703L195.127 256.297C196.247 255.997 197.399 256.662 197.699 257.782L197.293 257.891ZM199.846 260.927L199.955 261.332C198.834 261.632 197.683 260.968 197.383 259.847L197.788 259.739L198.194 259.63C198.374 260.302 199.065 260.701 199.737 260.521L199.846 260.927ZM203.509 261.684L203.103 261.793C202.923 261.121 202.232 260.722 201.56 260.902L201.452 260.496L201.343 260.091C202.463 259.79 203.615 260.455 203.915 261.576L203.509 261.684Z" fill="#11C76F" fill-opacity="0.2"/>
<path d="M181.527 247.637C181.847 248.832 181.138 250.06 179.943 250.381C178.748 250.701 177.52 249.992 177.2 248.797C176.88 247.602 177.589 246.373 178.784 246.053C179.979 245.733 181.207 246.442 181.527 247.637ZM189.406 273.083L189 273.191L187.16 266.325L187.566 266.216L187.972 266.107L189.811 272.974L189.406 273.083ZM185.508 265.028L185.617 265.434L183.041 266.124L182.933 265.718L182.824 265.313L185.4 264.622L185.508 265.028ZM180.875 264.53L180.469 264.639L179.767 262.017L180.172 261.908L180.578 261.8L181.281 264.422L180.875 264.53ZM182.126 258.525L181.72 258.634L178.958 248.326L179.363 248.217L179.769 248.108L182.531 258.417L182.126 258.525ZM181.149 260.217L181.04 259.811C181.553 259.674 181.857 259.147 181.72 258.634L182.126 258.525L182.531 258.417C182.789 259.378 182.219 260.365 181.258 260.623L181.149 260.217ZM180.172 261.908L179.767 262.017C179.509 261.056 180.079 260.069 181.04 259.811L181.149 260.217L181.258 260.623C180.745 260.76 180.441 261.287 180.578 261.8L180.172 261.908ZM182.933 265.718L183.041 266.124C181.921 266.424 180.769 265.759 180.469 264.639L180.875 264.53L181.281 264.422C181.461 265.094 182.152 265.493 182.824 265.313L182.933 265.718ZM187.566 266.216L187.16 266.325C186.98 265.653 186.289 265.254 185.617 265.434L185.508 265.028L185.4 264.622C186.52 264.322 187.671 264.987 187.972 266.107L187.566 266.216Z" fill="#11C76F" fill-opacity="0.2"/>
</g>
<mask id="path-37-outside-1_1325_1174" maskUnits="userSpaceOnUse" x="289" y="40" width="891" height="149" fill="black">
<rect fill="white" x="289" y="40" width="891" height="149"/>
<path d="M436.873 43.4V97.2L418.073 115.2L436.873 133.4V166.4H377.473L356.673 187H328.673H291.473V134.4V96V75.8H306.473L330.673 51.4V43.4H436.873ZM399.473 81.2H328.673V85.6V95.6V97.6V98.4H399.473V97.6V95.6V85.6V81.2ZM328.673 149.4H399.473V135H350.073H332.873H328.673V149.4ZM363.873 187L379.473 171.4H436.873V187H363.873ZM325.673 49.4L304.273 70.8H291.473V43.4H325.673V49.4ZM597.702 187H584.902L567.502 169.6H500.702L483.302 187H456.902V117L530.102 43.8L548.702 62.4H597.702V80.8H545.902L529.102 97.6H587.502V134.8H494.302V149.6H597.702V187ZM577.102 187H491.102L503.702 174.4H564.502L577.102 187ZM597.702 57.8H551.702L537.502 43.4H597.702V57.8ZM667.645 187H649.245V80.8H604.245V56.4H661.045L674.045 43.4H731.845V80.8H686.645V106.2L667.645 125.2V187ZM686.645 187H672.445V128.4L686.645 114V187ZM658.045 51.6H604.245V43.4H666.245L658.045 51.6ZM868.024 187H751.824V149.6H859.824V134.4H790.424L751.824 97V66H813.024L832.624 46.4V43.4H879.424V80.8H789.224V97H858.624L897.224 134.4V147.4H887.624L868.024 167V187ZM897.224 187H872.824V170L890.624 152.2H897.224V187ZM810.024 61.2H751.824V43.4H827.824L810.024 61.2ZM954.654 187H917.254V43.4H954.654V62.2H949.454L929.854 81.8V148.6L949.454 168.2H954.654V187ZM954.654 163.4H952.454L934.654 145.6V84.8L952.454 67H954.654V163.4ZM1090.88 187H974.676V149.6H1082.68V134.4H1013.28L974.676 97V66H1035.88L1055.48 46.4V43.4H1102.28V80.8H1012.08V97H1081.48L1120.08 134.4V147.4H1110.48L1090.88 167V187ZM1120.08 187H1095.68V170L1113.48 152.2H1120.08V187ZM1032.88 61.2H974.676V43.4H1050.68L1032.88 61.2ZM1177.51 187H1140.11V43.4H1177.51V62.2H1172.31L1152.71 81.8V148.6L1172.31 168.2H1177.51V187ZM1177.51 163.4H1175.31L1157.51 145.6V84.8L1175.31 67H1177.51V163.4Z"/>
</mask>
<path d="M436.873 43.4H438.873V41.4H436.873V43.4ZM436.873 97.2L438.256 98.6446L438.873 98.054V97.2H436.873ZM418.073 115.2L416.69 113.755L415.189 115.192L416.682 116.637L418.073 115.2ZM436.873 133.4H438.873V132.553L438.264 131.963L436.873 133.4ZM436.873 166.4V168.4H438.873V166.4H436.873ZM377.473 166.4V164.4H376.65L376.065 164.979L377.473 166.4ZM356.673 187V189H357.495L358.08 188.421L356.673 187ZM291.473 187H289.473V189H291.473V187ZM291.473 75.8V73.8H289.473V75.8H291.473ZM306.473 75.8V77.8H307.306L307.893 77.2084L306.473 75.8ZM330.673 51.4L332.093 52.8084L332.673 52.2236V51.4H330.673ZM330.673 43.4V41.4H328.673V43.4H330.673ZM399.473 81.2H401.473V79.2H399.473V81.2ZM328.673 81.2V79.2H326.673V81.2H328.673ZM328.673 98.4H326.673V100.4H328.673V98.4ZM399.473 98.4V100.4H401.473V98.4H399.473ZM328.673 149.4H326.673V151.4H328.673V149.4ZM399.473 149.4V151.4H401.473V149.4H399.473ZM399.473 135H401.473V133H399.473V135ZM328.673 135V133H326.673V135H328.673ZM363.873 187L362.458 185.586L359.044 189H363.873V187ZM379.473 171.4V169.4H378.644L378.058 169.986L379.473 171.4ZM436.873 171.4H438.873V169.4H436.873V171.4ZM436.873 187V189H438.873V187H436.873ZM325.673 49.4L327.087 50.8142L327.673 50.2284V49.4H325.673ZM304.273 70.8V72.8H305.101L305.687 72.2142L304.273 70.8ZM291.473 70.8H289.473V72.8H291.473V70.8ZM291.473 43.4V41.4H289.473V43.4H291.473ZM325.673 43.4H327.673V41.4H325.673V43.4ZM436.873 43.4H434.873V97.2H436.873H438.873V43.4H436.873ZM436.873 97.2L435.49 95.7554L416.69 113.755L418.073 115.2L419.456 116.645L438.256 98.6446L436.873 97.2ZM418.073 115.2L416.682 116.637L435.482 134.837L436.873 133.4L438.264 131.963L419.464 113.763L418.073 115.2ZM436.873 133.4H434.873V166.4H436.873H438.873V133.4H436.873ZM436.873 166.4V164.4H377.473V166.4V168.4H436.873V166.4ZM377.473 166.4L376.065 164.979L355.265 185.579L356.673 187L358.08 188.421L378.88 167.821L377.473 166.4ZM356.673 187V185H328.673V187V189H356.673V187ZM328.673 187V185H291.473V187V189H328.673V187ZM291.473 187H293.473V134.4H291.473H289.473V187H291.473ZM291.473 134.4H293.473V96H291.473H289.473V134.4H291.473ZM291.473 96H293.473V75.8H291.473H289.473V96H291.473ZM291.473 75.8V77.8H306.473V75.8V73.8H291.473V75.8ZM306.473 75.8L307.893 77.2084L332.093 52.8084L330.673 51.4L329.253 49.9916L305.053 74.3916L306.473 75.8ZM330.673 51.4H332.673V43.4H330.673H328.673V51.4H330.673ZM330.673 43.4V45.4H436.873V43.4V41.4H330.673V43.4ZM399.473 81.2V79.2H328.673V81.2V83.2H399.473V81.2ZM328.673 81.2H326.673V85.6H328.673H330.673V81.2H328.673ZM328.673 85.6H326.673V95.6H328.673H330.673V85.6H328.673ZM328.673 95.6H326.673V97.6H328.673H330.673V95.6H328.673ZM328.673 97.6H326.673V98.4H328.673H330.673V97.6H328.673ZM328.673 98.4V100.4H399.473V98.4V96.4H328.673V98.4ZM399.473 98.4H401.473V97.6H399.473H397.473V98.4H399.473ZM399.473 97.6H401.473V95.6H399.473H397.473V97.6H399.473ZM399.473 95.6H401.473V85.6H399.473H397.473V95.6H399.473ZM399.473 85.6H401.473V81.2H399.473H397.473V85.6H399.473ZM328.673 149.4V151.4H399.473V149.4V147.4H328.673V149.4ZM399.473 149.4H401.473V135H399.473H397.473V149.4H399.473ZM399.473 135V133H350.073V135V137H399.473V135ZM350.073 135V133H332.873V135V137H350.073V135ZM332.873 135V133H328.673V135V137H332.873V135ZM328.673 135H326.673V149.4H328.673H330.673V135H328.673ZM363.873 187L365.287 188.414L380.887 172.814L379.473 171.4L378.058 169.986L362.458 185.586L363.873 187ZM379.473 171.4V173.4H436.873V171.4V169.4H379.473V171.4ZM436.873 171.4H434.873V187H436.873H438.873V171.4H436.873ZM436.873 187V185H363.873V187V189H436.873V187ZM325.673 49.4L324.258 47.9858L302.858 69.3858L304.273 70.8L305.687 72.2142L327.087 50.8142L325.673 49.4ZM304.273 70.8V68.8H291.473V70.8V72.8H304.273V70.8ZM291.473 70.8H293.473V43.4H291.473H289.473V70.8H291.473ZM291.473 43.4V45.4H325.673V43.4V41.4H291.473V43.4ZM325.673 43.4H323.673V49.4H325.673H327.673V43.4H325.673ZM597.702 187V189H599.702V187H597.702ZM584.902 187L583.488 188.414L584.074 189H584.902V187ZM567.502 169.6L568.917 168.186L568.331 167.6H567.502V169.6ZM500.702 169.6V167.6H499.874L499.288 168.186L500.702 169.6ZM483.302 187V189H484.131L484.717 188.414L483.302 187ZM456.902 187H454.902V189H456.902V187ZM456.902 117L455.488 115.586L454.902 116.172V117H456.902ZM530.102 43.8L531.517 42.3858L530.102 40.9716L528.688 42.3858L530.102 43.8ZM548.702 62.4L547.288 63.8142L547.874 64.4H548.702V62.4ZM597.702 62.4H599.702V60.4H597.702V62.4ZM597.702 80.8V82.8H599.702V80.8H597.702ZM545.902 80.8V78.8H545.074L544.488 79.3858L545.902 80.8ZM529.102 97.6L527.688 96.1858L524.274 99.6H529.102V97.6ZM587.502 97.6H589.502V95.6H587.502V97.6ZM587.502 134.8V136.8H589.502V134.8H587.502ZM494.302 134.8V132.8H492.302V134.8H494.302ZM494.302 149.6H492.302V151.6H494.302V149.6ZM597.702 149.6H599.702V147.6H597.702V149.6ZM577.102 187V189H581.931L578.517 185.586L577.102 187ZM491.102 187L489.688 185.586L486.274 189H491.102V187ZM503.702 174.4V172.4H502.874L502.288 172.986L503.702 174.4ZM564.502 174.4L565.917 172.986L565.331 172.4H564.502V174.4ZM597.702 57.8V59.8H599.702V57.8H597.702ZM551.702 57.8L550.278 59.2043L550.866 59.8H551.702V57.8ZM537.502 43.4V41.4H532.721L536.078 44.8043L537.502 43.4ZM597.702 43.4H599.702V41.4H597.702V43.4ZM597.702 187V185H584.902V187V189H597.702V187ZM584.902 187L586.317 185.586L568.917 168.186L567.502 169.6L566.088 171.014L583.488 188.414L584.902 187ZM567.502 169.6V167.6H500.702V169.6V171.6H567.502V169.6ZM500.702 169.6L499.288 168.186L481.888 185.586L483.302 187L484.717 188.414L502.117 171.014L500.702 169.6ZM483.302 187V185H456.902V187V189H483.302V187ZM456.902 187H458.902V117H456.902H454.902V187H456.902ZM456.902 117L458.317 118.414L531.517 45.2142L530.102 43.8L528.688 42.3858L455.488 115.586L456.902 117ZM530.102 43.8L528.688 45.2142L547.288 63.8142L548.702 62.4L550.117 60.9858L531.517 42.3858L530.102 43.8ZM548.702 62.4V64.4H597.702V62.4V60.4H548.702V62.4ZM597.702 62.4H595.702V80.8H597.702H599.702V62.4H597.702ZM597.702 80.8V78.8H545.902V80.8V82.8H597.702V80.8ZM545.902 80.8L544.488 79.3858L527.688 96.1858L529.102 97.6L530.517 99.0142L547.317 82.2142L545.902 80.8ZM529.102 97.6V99.6H587.502V97.6V95.6H529.102V97.6ZM587.502 97.6H585.502V134.8H587.502H589.502V97.6H587.502ZM587.502 134.8V132.8H494.302V134.8V136.8H587.502V134.8ZM494.302 134.8H492.302V149.6H494.302H496.302V134.8H494.302ZM494.302 149.6V151.6H597.702V149.6V147.6H494.302V149.6ZM597.702 149.6H595.702V187H597.702H599.702V149.6H597.702ZM577.102 187V185H491.102V187V189H577.102V187ZM491.102 187L492.517 188.414L505.117 175.814L503.702 174.4L502.288 172.986L489.688 185.586L491.102 187ZM503.702 174.4V176.4H564.502V174.4V172.4H503.702V174.4ZM564.502 174.4L563.088 175.814L575.688 188.414L577.102 187L578.517 185.586L565.917 172.986L564.502 174.4ZM597.702 57.8V55.8H551.702V57.8V59.8H597.702V57.8ZM551.702 57.8L553.126 56.3957L538.926 41.9957L537.502 43.4L536.078 44.8043L550.278 59.2043L551.702 57.8ZM537.502 43.4V45.4H597.702V43.4V41.4H537.502V43.4ZM597.702 43.4H595.702V57.8H597.702H599.702V43.4H597.702ZM667.645 187V189H669.645V187H667.645ZM649.245 187H647.245V189H649.245V187ZM649.245 80.8H651.245V78.8H649.245V80.8ZM604.245 80.8H602.245V82.8H604.245V80.8ZM604.245 56.4V54.4H602.245V56.4H604.245ZM661.045 56.4V58.4H661.873L662.459 57.8142L661.045 56.4ZM674.045 43.4V41.4H673.216L672.63 41.9858L674.045 43.4ZM731.845 43.4H733.845V41.4H731.845V43.4ZM731.845 80.8V82.8H733.845V80.8H731.845ZM686.645 80.8V78.8H684.645V80.8H686.645ZM686.645 106.2L688.059 107.614L688.645 107.028V106.2H686.645ZM667.645 125.2L666.23 123.786L665.645 124.372V125.2H667.645ZM686.645 187V189H688.645V187H686.645ZM672.445 187H670.445V189H672.445V187ZM672.445 128.4L671.02 126.996L670.445 127.58V128.4H672.445ZM686.645 114H688.645V109.123L685.22 112.596L686.645 114ZM658.045 51.6V53.6H658.873L659.459 53.0142L658.045 51.6ZM604.245 51.6H602.245V53.6H604.245V51.6ZM604.245 43.4V41.4H602.245V43.4H604.245ZM666.245 43.4L667.659 44.8142L671.073 41.4H666.245V43.4ZM667.645 187V185H649.245V187V189H667.645V187ZM649.245 187H651.245V80.8H649.245H647.245V187H649.245ZM649.245 80.8V78.8H604.245V80.8V82.8H649.245V80.8ZM604.245 80.8H606.245V56.4H604.245H602.245V80.8H604.245ZM604.245 56.4V58.4H661.045V56.4V54.4H604.245V56.4ZM661.045 56.4L662.459 57.8142L675.459 44.8142L674.045 43.4L672.63 41.9858L659.63 54.9858L661.045 56.4ZM674.045 43.4V45.4H731.845V43.4V41.4H674.045V43.4ZM731.845 43.4H729.845V80.8H731.845H733.845V43.4H731.845ZM731.845 80.8V78.8H686.645V80.8V82.8H731.845V80.8ZM686.645 80.8H684.645V106.2H686.645H688.645V80.8H686.645ZM686.645 106.2L685.23 104.786L666.23 123.786L667.645 125.2L669.059 126.614L688.059 107.614L686.645 106.2ZM667.645 125.2H665.645V187H667.645H669.645V125.2H667.645ZM686.645 187V185H672.445V187V189H686.645V187ZM672.445 187H674.445V128.4H672.445H670.445V187H672.445ZM672.445 128.4L673.869 129.804L688.069 115.404L686.645 114L685.22 112.596L671.02 126.996L672.445 128.4ZM686.645 114H684.645V187H686.645H688.645V114H686.645ZM658.045 51.6V49.6H604.245V51.6V53.6H658.045V51.6ZM604.245 51.6H606.245V43.4H604.245H602.245V51.6H604.245ZM604.245 43.4V45.4H666.245V43.4V41.4H604.245V43.4ZM666.245 43.4L664.83 41.9858L656.63 50.1858L658.045 51.6L659.459 53.0142L667.659 44.8142L666.245 43.4ZM868.024 187V189H870.024V187H868.024ZM751.824 187H749.824V189H751.824V187ZM751.824 149.6V147.6H749.824V149.6H751.824ZM859.824 149.6V151.6H861.824V149.6H859.824ZM859.824 134.4H861.824V132.4H859.824V134.4ZM790.424 134.4L789.033 135.836L789.614 136.4H790.424V134.4ZM751.824 97H749.824V97.847L750.433 98.4364L751.824 97ZM751.824 66V64H749.824V66H751.824ZM813.024 66V68H813.853L814.438 67.4142L813.024 66ZM832.624 46.4L834.038 47.8142L834.624 47.2284V46.4H832.624ZM832.624 43.4V41.4H830.624V43.4H832.624ZM879.424 43.4H881.424V41.4H879.424V43.4ZM879.424 80.8V82.8H881.424V80.8H879.424ZM789.224 80.8V78.8H787.224V80.8H789.224ZM789.224 97H787.224V99H789.224V97ZM858.624 97L860.016 95.5636L859.434 95H858.624V97ZM897.224 134.4H899.224V133.553L898.616 132.964L897.224 134.4ZM897.224 147.4V149.4H899.224V147.4H897.224ZM887.624 147.4V145.4H886.796L886.21 145.986L887.624 147.4ZM868.024 167L866.61 165.586L866.024 166.172V167H868.024ZM897.224 187V189H899.224V187H897.224ZM872.824 187H870.824V189H872.824V187ZM872.824 170L871.41 168.586L870.824 169.172V170H872.824ZM890.624 152.2V150.2H889.796L889.21 150.786L890.624 152.2ZM897.224 152.2H899.224V150.2H897.224V152.2ZM810.024 61.2V63.2H810.853L811.438 62.6142L810.024 61.2ZM751.824 61.2H749.824V63.2H751.824V61.2ZM751.824 43.4V41.4H749.824V43.4H751.824ZM827.824 43.4L829.238 44.8142L832.653 41.4H827.824V43.4ZM868.024 187V185H751.824V187V189H868.024V187ZM751.824 187H753.824V149.6H751.824H749.824V187H751.824ZM751.824 149.6V151.6H859.824V149.6V147.6H751.824V149.6ZM859.824 149.6H861.824V134.4H859.824H857.824V149.6H859.824ZM859.824 134.4V132.4H790.424V134.4V136.4H859.824V134.4ZM790.424 134.4L791.816 132.964L753.216 95.5636L751.824 97L750.433 98.4364L789.033 135.836L790.424 134.4ZM751.824 97H753.824V66H751.824H749.824V97H751.824ZM751.824 66V68H813.024V66V64H751.824V66ZM813.024 66L814.438 67.4142L834.038 47.8142L832.624 46.4L831.21 44.9858L811.61 64.5858L813.024 66ZM832.624 46.4H834.624V43.4H832.624H830.624V46.4H832.624ZM832.624 43.4V45.4H879.424V43.4V41.4H832.624V43.4ZM879.424 43.4H877.424V80.8H879.424H881.424V43.4H879.424ZM879.424 80.8V78.8H789.224V80.8V82.8H879.424V80.8ZM789.224 80.8H787.224V97H789.224H791.224V80.8H789.224ZM789.224 97V99H858.624V97V95H789.224V97ZM858.624 97L857.233 98.4364L895.833 135.836L897.224 134.4L898.616 132.964L860.016 95.5636L858.624 97ZM897.224 134.4H895.224V147.4H897.224H899.224V134.4H897.224ZM897.224 147.4V145.4H887.624V147.4V149.4H897.224V147.4ZM887.624 147.4L886.21 145.986L866.61 165.586L868.024 167L869.438 168.414L889.038 148.814L887.624 147.4ZM868.024 167H866.024V187H868.024H870.024V167H868.024ZM897.224 187V185H872.824V187V189H897.224V187ZM872.824 187H874.824V170H872.824H870.824V187H872.824ZM872.824 170L874.238 171.414L892.038 153.614L890.624 152.2L889.21 150.786L871.41 168.586L872.824 170ZM890.624 152.2V154.2H897.224V152.2V150.2H890.624V152.2ZM897.224 152.2H895.224V187H897.224H899.224V152.2H897.224ZM810.024 61.2V59.2H751.824V61.2V63.2H810.024V61.2ZM751.824 61.2H753.824V43.4H751.824H749.824V61.2H751.824ZM751.824 43.4V45.4H827.824V43.4V41.4H751.824V43.4ZM827.824 43.4L826.41 41.9858L808.61 59.7858L810.024 61.2L811.438 62.6142L829.238 44.8142L827.824 43.4ZM954.654 187V189H956.654V187H954.654ZM917.254 187H915.254V189H917.254V187ZM917.254 43.4V41.4H915.254V43.4H917.254ZM954.654 43.4H956.654V41.4H954.654V43.4ZM954.654 62.2V64.2H956.654V62.2H954.654ZM949.454 62.2V60.2H948.625L948.04 60.7858L949.454 62.2ZM929.854 81.8L928.44 80.3858L927.854 80.9716V81.8H929.854ZM929.854 148.6H927.854V149.428L928.44 150.014L929.854 148.6ZM949.454 168.2L948.04 169.614L948.625 170.2H949.454V168.2ZM954.654 168.2H956.654V166.2H954.654V168.2ZM954.654 163.4V165.4H956.654V163.4H954.654ZM952.454 163.4L951.04 164.814L951.625 165.4H952.454V163.4ZM934.654 145.6H932.654V146.428L933.24 147.014L934.654 145.6ZM934.654 84.8L933.24 83.3858L932.654 83.9716V84.8H934.654ZM952.454 67V65H951.625L951.04 65.5858L952.454 67ZM954.654 67H956.654V65H954.654V67ZM954.654 187V185H917.254V187V189H954.654V187ZM917.254 187H919.254V43.4H917.254H915.254V187H917.254ZM917.254 43.4V45.4H954.654V43.4V41.4H917.254V43.4ZM954.654 43.4H952.654V62.2H954.654H956.654V43.4H954.654ZM954.654 62.2V60.2H949.454V62.2V64.2H954.654V62.2ZM949.454 62.2L948.04 60.7858L928.44 80.3858L929.854 81.8L931.268 83.2142L950.868 63.6142L949.454 62.2ZM929.854 81.8H927.854V148.6H929.854H931.854V81.8H929.854ZM929.854 148.6L928.44 150.014L948.04 169.614L949.454 168.2L950.868 166.786L931.268 147.186L929.854 148.6ZM949.454 168.2V170.2H954.654V168.2V166.2H949.454V168.2ZM954.654 168.2H952.654V187H954.654H956.654V168.2H954.654ZM954.654 163.4V161.4H952.454V163.4V165.4H954.654V163.4ZM952.454 163.4L953.868 161.986L936.068 144.186L934.654 145.6L933.24 147.014L951.04 164.814L952.454 163.4ZM934.654 145.6H936.654V84.8H934.654H932.654V145.6H934.654ZM934.654 84.8L936.068 86.2142L953.868 68.4142L952.454 67L951.04 65.5858L933.24 83.3858L934.654 84.8ZM952.454 67V69H954.654V67V65H952.454V67ZM954.654 67H952.654V163.4H954.654H956.654V67H954.654ZM1090.88 187V189H1092.88V187H1090.88ZM974.676 187H972.676V189H974.676V187ZM974.676 149.6V147.6H972.676V149.6H974.676ZM1082.68 149.6V151.6H1084.68V149.6H1082.68ZM1082.68 134.4H1084.68V132.4H1082.68V134.4ZM1013.28 134.4L1011.88 135.836L1012.47 136.4H1013.28V134.4ZM974.676 97H972.676V97.847L973.284 98.4364L974.676 97ZM974.676 66V64H972.676V66H974.676ZM1035.88 66V68H1036.7L1037.29 67.4142L1035.88 66ZM1055.48 46.4L1056.89 47.8142L1057.48 47.2284V46.4H1055.48ZM1055.48 43.4V41.4H1053.48V43.4H1055.48ZM1102.28 43.4H1104.28V41.4H1102.28V43.4ZM1102.28 80.8V82.8H1104.28V80.8H1102.28ZM1012.08 80.8V78.8H1010.08V80.8H1012.08ZM1012.08 97H1010.08V99H1012.08V97ZM1081.48 97L1082.87 95.5636L1082.29 95H1081.48V97ZM1120.08 134.4H1122.08V133.553L1121.47 132.964L1120.08 134.4ZM1120.08 147.4V149.4H1122.08V147.4H1120.08ZM1110.48 147.4V145.4H1109.65L1109.06 145.986L1110.48 147.4ZM1090.88 167L1089.46 165.586L1088.88 166.172V167H1090.88ZM1120.08 187V189H1122.08V187H1120.08ZM1095.68 187H1093.68V189H1095.68V187ZM1095.68 170L1094.26 168.586L1093.68 169.172V170H1095.68ZM1113.48 152.2V150.2H1112.65L1112.06 150.786L1113.48 152.2ZM1120.08 152.2H1122.08V150.2H1120.08V152.2ZM1032.88 61.2V63.2H1033.7L1034.29 62.6142L1032.88 61.2ZM974.676 61.2H972.676V63.2H974.676V61.2ZM974.676 43.4V41.4H972.676V43.4H974.676ZM1050.68 43.4L1052.09 44.8142L1055.5 41.4H1050.68V43.4ZM1090.88 187V185H974.676V187V189H1090.88V187ZM974.676 187H976.676V149.6H974.676H972.676V187H974.676ZM974.676 149.6V151.6H1082.68V149.6V147.6H974.676V149.6ZM1082.68 149.6H1084.68V134.4H1082.68H1080.68V149.6H1082.68ZM1082.68 134.4V132.4H1013.28V134.4V136.4H1082.68V134.4ZM1013.28 134.4L1014.67 132.964L976.067 95.5636L974.676 97L973.284 98.4364L1011.88 135.836L1013.28 134.4ZM974.676 97H976.676V66H974.676H972.676V97H974.676ZM974.676 66V68H1035.88V66V64H974.676V66ZM1035.88 66L1037.29 67.4142L1056.89 47.8142L1055.48 46.4L1054.06 44.9858L1034.46 64.5858L1035.88 66ZM1055.48 46.4H1057.48V43.4H1055.48H1053.48V46.4H1055.48ZM1055.48 43.4V45.4H1102.28V43.4V41.4H1055.48V43.4ZM1102.28 43.4H1100.28V80.8H1102.28H1104.28V43.4H1102.28ZM1102.28 80.8V78.8H1012.08V80.8V82.8H1102.28V80.8ZM1012.08 80.8H1010.08V97H1012.08H1014.08V80.8H1012.08ZM1012.08 97V99H1081.48V97V95H1012.08V97ZM1081.48 97L1080.08 98.4364L1118.68 135.836L1120.08 134.4L1121.47 132.964L1082.87 95.5636L1081.48 97ZM1120.08 134.4H1118.08V147.4H1120.08H1122.08V134.4H1120.08ZM1120.08 147.4V145.4H1110.48V147.4V149.4H1120.08V147.4ZM1110.48 147.4L1109.06 145.986L1089.46 165.586L1090.88 167L1092.29 168.414L1111.89 148.814L1110.48 147.4ZM1090.88 167H1088.88V187H1090.88H1092.88V167H1090.88ZM1120.08 187V185H1095.68V187V189H1120.08V187ZM1095.68 187H1097.68V170H1095.68H1093.68V187H1095.68ZM1095.68 170L1097.09 171.414L1114.89 153.614L1113.48 152.2L1112.06 150.786L1094.26 168.586L1095.68 170ZM1113.48 152.2V154.2H1120.08V152.2V150.2H1113.48V152.2ZM1120.08 152.2H1118.08V187H1120.08H1122.08V152.2H1120.08ZM1032.88 61.2V59.2H974.676V61.2V63.2H1032.88V61.2ZM974.676 61.2H976.676V43.4H974.676H972.676V61.2H974.676ZM974.676 43.4V45.4H1050.68V43.4V41.4H974.676V43.4ZM1050.68 43.4L1049.26 41.9858L1031.46 59.7858L1032.88 61.2L1034.29 62.6142L1052.09 44.8142L1050.68 43.4ZM1177.51 187V189H1179.51V187H1177.51ZM1140.11 187H1138.11V189H1140.11V187ZM1140.11 43.4V41.4H1138.11V43.4H1140.11ZM1177.51 43.4H1179.51V41.4H1177.51V43.4ZM1177.51 62.2V64.2H1179.51V62.2H1177.51ZM1172.31 62.2V60.2H1171.48L1170.89 60.7858L1172.31 62.2ZM1152.71 81.8L1151.29 80.3858L1150.71 80.9716V81.8H1152.71ZM1152.71 148.6H1150.71V149.428L1151.29 150.014L1152.71 148.6ZM1172.31 168.2L1170.89 169.614L1171.48 170.2H1172.31V168.2ZM1177.51 168.2H1179.51V166.2H1177.51V168.2ZM1177.51 163.4V165.4H1179.51V163.4H1177.51ZM1175.31 163.4L1173.89 164.814L1174.48 165.4H1175.31V163.4ZM1157.51 145.6H1155.51V146.428L1156.09 147.014L1157.51 145.6ZM1157.51 84.8L1156.09 83.3858L1155.51 83.9716V84.8H1157.51ZM1175.31 67V65H1174.48L1173.89 65.5858L1175.31 67ZM1177.51 67H1179.51V65H1177.51V67ZM1177.51 187V185H1140.11V187V189H1177.51V187ZM1140.11 187H1142.11V43.4H1140.11H1138.11V187H1140.11ZM1140.11 43.4V45.4H1177.51V43.4V41.4H1140.11V43.4ZM1177.51 43.4H1175.51V62.2H1177.51H1179.51V43.4H1177.51ZM1177.51 62.2V60.2H1172.31V62.2V64.2H1177.51V62.2ZM1172.31 62.2L1170.89 60.7858L1151.29 80.3858L1152.71 81.8L1154.12 83.2142L1173.72 63.6142L1172.31 62.2ZM1152.71 81.8H1150.71V148.6H1152.71H1154.71V81.8H1152.71ZM1152.71 148.6L1151.29 150.014L1170.89 169.614L1172.31 168.2L1173.72 166.786L1154.12 147.186L1152.71 148.6ZM1172.31 168.2V170.2H1177.51V168.2V166.2H1172.31V168.2ZM1177.51 168.2H1175.51V187H1177.51H1179.51V168.2H1177.51ZM1177.51 163.4V161.4H1175.31V163.4V165.4H1177.51V163.4ZM1175.31 163.4L1176.72 161.986L1158.92 144.186L1157.51 145.6L1156.09 147.014L1173.89 164.814L1175.31 163.4ZM1157.51 145.6H1159.51V84.8H1157.51H1155.51V145.6H1157.51ZM1157.51 84.8L1158.92 86.2142L1176.72 68.4142L1175.31 67L1173.89 65.5858L1156.09 83.3858L1157.51 84.8ZM1175.31 67V69H1177.51V67V65H1175.31V67ZM1177.51 67H1175.51V163.4H1177.51H1179.51V67H1177.51Z" fill="#11C76F" fill-opacity="0.5" mask="url(#path-37-outside-1_1325_1174)"/>
<defs>
<filter id="filter0_f_1325_1174" x="1251" y="97" width="262.479" height="283.578" filterUnits="userSpaceOnUse" color-interpolation-filters="sRGB">
<feFlood flood-opacity="0" result="BackgroundImageFix"/>
<feBlend mode="normal" in="SourceGraphic" in2="BackgroundImageFix" result="shape"/>
<feGaussianBlur stdDeviation="6" result="effect1_foregroundBlur_1325_1174"/>
</filter>
<filter id="filter1_i_1325_1174" x="1358.43" y="216.135" width="45.7461" height="48.2091" filterUnits="userSpaceOnUse" color-interpolation-filters="sRGB">
<feFlood flood-opacity="0" result="BackgroundImageFix"/>
<feBlend mode="normal" in="SourceGraphic" in2="BackgroundImageFix" result="shape"/>
<feColorMatrix in="SourceAlpha" type="matrix" values="0 0 0 0 0 0 0 0 0 0 0 0 0 0 0 0 0 0 127 0" result="hardAlpha"/>
<feOffset dy="0.756"/>
<feGaussianBlur stdDeviation="3.78"/>
<feComposite in2="hardAlpha" operator="arithmetic" k2="-1" k3="1"/>
<feColorMatrix type="matrix" values="0 0 0 0 0 0 0 0 0 0 0 0 0 0 0 0 0 0 1 0"/>
<feBlend mode="normal" in2="shape" result="effect1_innerShadow_1325_1174"/>
</filter>
<filter id="filter2_d_1325_1174" x="1138.42" y="27.1479" width="310.742" height="343.199" filterUnits="userSpaceOnUse" color-interpolation-filters="sRGB">
<feFlood flood-opacity="0" result="BackgroundImageFix"/>
<feColorMatrix in="SourceAlpha" type="matrix" values="0 0 0 0 0 0 0 0 0 0 0 0 0 0 0 0 0 0 127 0" result="hardAlpha"/>
<feOffset dy="18"/>
<feGaussianBlur stdDeviation="17.5"/>
<feComposite in2="hardAlpha" operator="out"/>
<feColorMatrix type="matrix" values="0 0 0 0 0 0 0 0 0 0 0 0 0 0 0 0 0 0 0.5 0"/>
<feBlend mode="normal" in2="BackgroundImageFix" result="effect1_dropShadow_1325_1174"/>
<feBlend mode="normal" in="SourceGraphic" in2="effect1_dropShadow_1325_1174" result="shape"/>
</filter>
<filter id="filter3_i_1325_1174" x="1266.94" y="154.745" width="52.4746" height="54.6945" filterUnits="userSpaceOnUse" color-interpolation-filters="sRGB">
<feFlood flood-opacity="0" result="BackgroundImageFix"/>
<feBlend mode="normal" in="SourceGraphic" in2="BackgroundImageFix" result="shape"/>
<feColorMatrix in="SourceAlpha" type="matrix" values="0 0 0 0 0 0 0 0 0 0 0 0 0 0 0 0 0 0 127 0" result="hardAlpha"/>
<feOffset dy="0.84"/>
<feGaussianBlur stdDeviation="4.2"/>
<feComposite in2="hardAlpha" operator="arithmetic" k2="-1" k3="1"/>
<feColorMatrix type="matrix" values="0 0 0 0 0 0 0 0 0 0 0 0 0 0 0 0 0 0 1 0"/>
<feBlend mode="normal" in2="shape" result="effect1_innerShadow_1325_1174"/>
</filter>
<filter id="filter4_i_1325_1174" x="1369.62" y="88.7803" width="12.6035" height="12.603" filterUnits="userSpaceOnUse" color-interpolation-filters="sRGB">
<feFlood flood-opacity="0" result="BackgroundImageFix"/>
<feBlend mode="normal" in="SourceGraphic" in2="BackgroundImageFix" result="shape"/>
<feColorMatrix in="SourceAlpha" type="matrix" values="0 0 0 0 0 0 0 0 0 0 0 0 0 0 0 0 0 0 127 0" result="hardAlpha"/>
<feOffset/>
<feGaussianBlur stdDeviation="2.1"/>
<feComposite in2="hardAlpha" operator="arithmetic" k2="-1" k3="1"/>
<feColorMatrix type="matrix" values="0 0 0 0 1 0 0 0 0 1 0 0 0 0 1 0 0 0 1 0"/>
<feBlend mode="normal" in2="shape" result="effect1_innerShadow_1325_1174"/>
</filter>
<filter id="filter5_i_1325_1174" x="1391.53" y="94.6504" width="12.6035" height="12.603" filterUnits="userSpaceOnUse" color-interpolation-filters="sRGB">
<feFlood flood-opacity="0" result="BackgroundImageFix"/>
<feBlend mode="normal" in="SourceGraphic" in2="BackgroundImageFix" result="shape"/>
<feColorMatrix in="SourceAlpha" type="matrix" values="0 0 0 0 0 0 0 0 0 0 0 0 0 0 0 0 0 0 127 0" result="hardAlpha"/>
<feOffset/>
<feGaussianBlur stdDeviation="2.1"/>
<feComposite in2="hardAlpha" operator="arithmetic" k2="-1" k3="1"/>
<feColorMatrix type="matrix" values="0 0 0 0 1 0 0 0 0 1 0 0 0 0 1 0 0 0 1 0"/>
<feBlend mode="normal" in2="shape" result="effect1_innerShadow_1325_1174"/>
</filter>
<filter id="filter6_f_1325_1174" x="-74" y="83.8521" width="262.479" height="283.578" filterUnits="userSpaceOnUse" color-interpolation-filters="sRGB">
<feFlood flood-opacity="0" result="BackgroundImageFix"/>
<feBlend mode="normal" in="SourceGraphic" in2="BackgroundImageFix" result="shape"/>
<feGaussianBlur stdDeviation="6" result="effect1_foregroundBlur_1325_1174"/>
</filter>
<filter id="filter7_i_1325_1174" x="35.2988" y="202.987" width="45.7471" height="48.2091" filterUnits="userSpaceOnUse" color-interpolation-filters="sRGB">
<feFlood flood-opacity="0" result="BackgroundImageFix"/>
<feBlend mode="normal" in="SourceGraphic" in2="BackgroundImageFix" result="shape"/>
<feColorMatrix in="SourceAlpha" type="matrix" values="0 0 0 0 0 0 0 0 0 0 0 0 0 0 0 0 0 0 127 0" result="hardAlpha"/>
<feOffset dy="0.756"/>
<feGaussianBlur stdDeviation="3.78"/>
<feComposite in2="hardAlpha" operator="arithmetic" k2="-1" k3="1"/>
<feColorMatrix type="matrix" values="0 0 0 0 0 0 0 0 0 0 0 0 0 0 0 0 0 0 1 0"/>
<feBlend mode="normal" in2="shape" result="effect1_innerShadow_1325_1174"/>
</filter>
<filter id="filter8_d_1325_1174" x="-9.68164" y="14" width="310.742" height="343.199" filterUnits="userSpaceOnUse" color-interpolation-filters="sRGB">
<feFlood flood-opacity="0" result="BackgroundImageFix"/>
<feColorMatrix in="SourceAlpha" type="matrix" values="0 0 0 0 0 0 0 0 0 0 0 0 0 0 0 0 0 0 127 0" result="hardAlpha"/>
<feOffset dy="18"/>
<feGaussianBlur stdDeviation="17.5"/>
<feComposite in2="hardAlpha" operator="out"/>
<feColorMatrix type="matrix" values="0 0 0 0 0 0 0 0 0 0 0 0 0 0 0 0 0 0 0.5 0"/>
<feBlend mode="normal" in2="BackgroundImageFix" result="effect1_dropShadow_1325_1174"/>
<feBlend mode="normal" in="SourceGraphic" in2="effect1_dropShadow_1325_1174" result="shape"/>
</filter>
<filter id="filter9_i_1325_1174" x="120.063" y="141.597" width="52.4746" height="54.6945" filterUnits="userSpaceOnUse" color-interpolation-filters="sRGB">
<feFlood flood-opacity="0" result="BackgroundImageFix"/>
<feBlend mode="normal" in="SourceGraphic" in2="BackgroundImageFix" result="shape"/>
<feColorMatrix in="SourceAlpha" type="matrix" values="0 0 0 0 0 0 0 0 0 0 0 0 0 0 0 0 0 0 127 0" result="hardAlpha"/>
<feOffset dy="0.84"/>
<feGaussianBlur stdDeviation="4.2"/>
<feComposite in2="hardAlpha" operator="arithmetic" k2="-1" k3="1"/>
<feColorMatrix type="matrix" values="0 0 0 0 0 0 0 0 0 0 0 0 0 0 0 0 0 0 1 0"/>
<feBlend mode="normal" in2="shape" result="effect1_innerShadow_1325_1174"/>
</filter>
<filter id="filter10_i_1325_1174" x="57.2539" y="75.6323" width="12.6025" height="12.603" filterUnits="userSpaceOnUse" color-interpolation-filters="sRGB">
<feFlood flood-opacity="0" result="BackgroundImageFix"/>
<feBlend mode="normal" in="SourceGraphic" in2="BackgroundImageFix" result="shape"/>
<feColorMatrix in="SourceAlpha" type="matrix" values="0 0 0 0 0 0 0 0 0 0 0 0 0 0 0 0 0 0 127 0" result="hardAlpha"/>
<feOffset/>
<feGaussianBlur stdDeviation="2.1"/>
<feComposite in2="hardAlpha" operator="arithmetic" k2="-1" k3="1"/>
<feColorMatrix type="matrix" values="0 0 0 0 1 0 0 0 0 1 0 0 0 0 1 0 0 0 1 0"/>
<feBlend mode="normal" in2="shape" result="effect1_innerShadow_1325_1174"/>
</filter>
<filter id="filter11_i_1325_1174" x="35.3467" y="81.5024" width="12.6025" height="12.603" filterUnits="userSpaceOnUse" color-interpolation-filters="sRGB">
<feFlood flood-opacity="0" result="BackgroundImageFix"/>
<feBlend mode="normal" in="SourceGraphic" in2="BackgroundImageFix" result="shape"/>
<feColorMatrix in="SourceAlpha" type="matrix" values="0 0 0 0 0 0 0 0 0 0 0 0 0 0 0 0 0 0 127 0" result="hardAlpha"/>
<feOffset/>
<feGaussianBlur stdDeviation="2.1"/>
<feComposite in2="hardAlpha" operator="arithmetic" k2="-1" k3="1"/>
<feColorMatrix type="matrix" values="0 0 0 0 1 0 0 0 0 1 0 0 0 0 1 0 0 0 1 0"/>
<feBlend mode="normal" in2="shape" result="effect1_innerShadow_1325_1174"/>
</filter>
<linearGradient id="paint0_linear_1325_1174" x1="1423.37" y1="145.98" x2="1341.19" y2="332.038" gradientUnits="userSpaceOnUse">
<stop stop-color="#11C76F"/>
<stop offset="1" stop-color="#086136"/>
</linearGradient>
<linearGradient id="paint1_linear_1325_1174" x1="1286.17" y1="273.147" x2="1283.6" y2="272.258" gradientUnits="userSpaceOnUse">
<stop stop-color="#086136"/>
<stop offset="1" stop-color="#11C76F"/>
</linearGradient>
<radialGradient id="paint2_radial_1325_1174" cx="0" cy="0" r="1" gradientUnits="userSpaceOnUse" gradientTransform="translate(1391.96 217.095) rotate(113.829) scale(48.062 19.4357)">
<stop stop-color="#11C76F"/>
<stop offset="1" stop-color="#086136"/>
</radialGradient>
<radialGradient id="paint3_radial_1325_1174" cx="0" cy="0" r="1" gradientUnits="userSpaceOnUse" gradientTransform="translate(1391.96 217.095) rotate(113.829) scale(23.9557 49.4934)">
<stop stop-color="#4AF0A0"/>
<stop offset="1" stop-color="#2B8A5C"/>
</radialGradient>
<linearGradient id="paint4_linear_1325_1174" x1="1323.12" y1="71.8334" x2="1264.63" y2="290.13" gradientUnits="userSpaceOnUse">
<stop stop-color="#11C76F"/>
<stop offset="1" stop-color="#086136"/>
</linearGradient>
<linearGradient id="paint5_linear_1325_1174" x1="1194.17" y1="234.855" x2="1191.19" y2="234.318" gradientUnits="userSpaceOnUse">
<stop stop-color="#086136"/>
<stop offset="1" stop-color="#11C76F"/>
</linearGradient>
<radialGradient id="paint6_radial_1325_1174" cx="0" cy="0" r="1" gradientUnits="userSpaceOnUse" gradientTransform="translate(1300.76 155.271) rotate(105) scale(53.4023 21.5953)">
<stop stop-color="#11C76F"/>
<stop offset="1" stop-color="#086136"/>
</radialGradient>
<radialGradient id="paint7_radial_1325_1174" cx="0" cy="0" r="1" gradientUnits="userSpaceOnUse" gradientTransform="translate(1300.76 155.271) rotate(105) scale(26.6174 54.9926)">
<stop stop-color="#4AF0A0"/>
<stop offset="1" stop-color="#2B8A5C"/>
</radialGradient>
<linearGradient id="paint8_linear_1325_1174" x1="16.1098" y1="132.832" x2="98.2851" y2="318.89" gradientUnits="userSpaceOnUse">
<stop stop-color="#11C76F"/>
<stop offset="1" stop-color="#086136"/>
</linearGradient>
<linearGradient id="paint9_linear_1325_1174" x1="153.31" y1="259.999" x2="155.882" y2="259.11" gradientUnits="userSpaceOnUse">
<stop stop-color="#086136"/>
<stop offset="1" stop-color="#11C76F"/>
</linearGradient>
<radialGradient id="paint10_radial_1325_1174" cx="0" cy="0" r="1" gradientUnits="userSpaceOnUse" gradientTransform="translate(47.5203 203.947) rotate(66.1707) scale(48.062 19.4357)">
<stop stop-color="#11C76F"/>
<stop offset="1" stop-color="#086136"/>
</radialGradient>
<radialGradient id="paint11_radial_1325_1174" cx="0" cy="0" r="1" gradientUnits="userSpaceOnUse" gradientTransform="translate(47.5203 203.947) rotate(66.1707) scale(23.9557 49.4934)">
<stop stop-color="#4AF0A0"/>
<stop offset="1" stop-color="#2B8A5C"/>
</radialGradient>
<linearGradient id="paint12_linear_1325_1174" x1="116.361" y1="58.6855" x2="174.853" y2="276.982" gradientUnits="userSpaceOnUse">
<stop stop-color="#11C76F"/>
<stop offset="1" stop-color="#086136"/>
</linearGradient>
<linearGradient id="paint13_linear_1325_1174" x1="245.311" y1="221.707" x2="248.287" y2="221.17" gradientUnits="userSpaceOnUse">
<stop stop-color="#086136"/>
<stop offset="1" stop-color="#11C76F"/>
</linearGradient>
<radialGradient id="paint14_radial_1325_1174" cx="0" cy="0" r="1" gradientUnits="userSpaceOnUse" gradientTransform="translate(138.718 142.123) rotate(75) scale(53.4023 21.5953)">
<stop stop-color="#11C76F"/>
<stop offset="1" stop-color="#086136"/>
</radialGradient>
<radialGradient id="paint15_radial_1325_1174" cx="0" cy="0" r="1" gradientUnits="userSpaceOnUse" gradientTransform="translate(138.718 142.123) rotate(75) scale(26.6174 54.9926)">
<stop stop-color="#4AF0A0"/>
<stop offset="1" stop-color="#2B8A5C"/>
</radialGradient>
<clipPath id="clip0_1325_1174">
<rect width="14.4638" height="14.4638" fill="white" transform="translate(1403.8 337.95) rotate(23.8293)"/>
</clipPath>
<clipPath id="clip1_1325_1174">
<rect width="57.8552" height="57.8552" fill="white" transform="translate(1367.51 200.86) rotate(23.8293)"/>
</clipPath>
<clipPath id="clip2_1325_1174">
<rect width="14.4638" height="14.4638" fill="white" transform="translate(1353.78 121.175) rotate(23.8293)"/>
</clipPath>
<clipPath id="clip3_1325_1174">
<rect width="16.0709" height="16.0709" fill="white" transform="translate(1334.38 285.943) rotate(15)"/>
</clipPath>
<clipPath id="clip4_1325_1174">
<rect width="64.2836" height="64.2836" fill="white" transform="translate(1271.14 141.616) rotate(15)"/>
</clipPath>
<clipPath id="clip5_1325_1174">
<rect width="16.0709" height="16.0709" fill="white" transform="translate(1242.49 56.4678) rotate(15)"/>
</clipPath>
<clipPath id="clip6_1325_1174">
<rect width="14.4638" height="14.4638" fill="white" transform="matrix(-0.914753 0.404014 0.404014 0.914753 35.6738 324.802)"/>
</clipPath>
<clipPath id="clip7_1325_1174">
<rect width="57.8552" height="57.8552" fill="white" transform="matrix(-0.914753 0.404014 0.404014 0.914753 71.9727 187.712)"/>
</clipPath>
<clipPath id="clip8_1325_1174">
<rect width="14.4638" height="14.4638" fill="white" transform="matrix(-0.914753 0.404014 0.404014 0.914753 85.6963 108.027)"/>
</clipPath>
<clipPath id="clip9_1325_1174">
<rect width="16.0709" height="16.0709" fill="white" transform="matrix(-0.965926 0.258819 0.258819 0.965926 105.1 272.795)"/>
</clipPath>
<clipPath id="clip10_1325_1174">
<rect width="64.2836" height="64.2836" fill="white" transform="matrix(-0.965926 0.258819 0.258819 0.965926 168.335 128.468)"/>
</clipPath>
<clipPath id="clip11_1325_1174">
<rect width="16.0709" height="16.0709" fill="white" transform="matrix(-0.965926 0.258819 0.258819 0.965926 196.992 43.3198)"/>
</clipPath>
</defs>
</svg>
