<svg width="573" height="318" viewBox="0 0 573 318" fill="none" xmlns="http://www.w3.org/2000/svg">
<path d="M30.3333 35C30.3333 36.4728 31.5272 37.6667 33 37.6667C34.4728 37.6667 35.6667 36.4728 35.6667 35C35.6667 33.5272 34.4728 32.3333 33 32.3333C31.5272 32.3333 30.3333 33.5272 30.3333 35ZM573 0.5H383.3V1.5H573V0.5ZM380.8 3V18H381.8V3H380.8ZM379.3 19.5H178.1V20.5H379.3V19.5ZM175.6 22V33H176.6V22H175.6ZM174.1 34.5H33V35.5H174.1V34.5ZM175.6 33C175.6 33.8284 174.928 34.5 174.1 34.5V35.5C175.481 35.5 176.6 34.3807 176.6 33H175.6ZM178.1 19.5C176.719 19.5 175.6 20.6193 175.6 22H176.6C176.6 21.1716 177.272 20.5 178.1 20.5V19.5ZM380.8 18C380.8 18.8284 380.128 19.5 379.3 19.5V20.5C380.681 20.5 381.8 19.3807 381.8 18H380.8ZM383.3 0.5C381.919 0.5 380.8 1.61929 380.8 3H381.8C381.8 2.17157 382.472 1.5 383.3 1.5V0.5Z" fill="url(#paint0_linear_1185_1757)"/>
<path d="M0.333333 61C0.333333 62.4728 1.52724 63.6667 3 63.6667C4.47276 63.6667 5.66667 62.4728 5.66667 61C5.66667 59.5272 4.47276 58.3333 3 58.3333C1.52724 58.3333 0.333333 59.5272 0.333333 61ZM573 54.5H279.194V55.5H573V54.5ZM276.694 57V88H277.694V57H276.694ZM275.194 89.5H148.175V90.5H275.194V89.5ZM146.675 88V63H145.675V88H146.675ZM144.175 60.5H3V61.5H144.175V60.5ZM146.675 63C146.675 61.6193 145.556 60.5 144.175 60.5V61.5C145.004 61.5 145.675 62.1716 145.675 63H146.675ZM148.175 89.5C147.347 89.5 146.675 88.8284 146.675 88H145.675C145.675 89.3807 146.795 90.5 148.175 90.5V89.5ZM276.694 88C276.694 88.8284 276.023 89.5 275.194 89.5V90.5C276.575 90.5 277.694 89.3807 277.694 88H276.694ZM279.194 54.5C277.814 54.5 276.694 55.6193 276.694 57H277.694C277.694 56.1716 278.366 55.5 279.194 55.5V54.5Z" fill="url(#paint1_linear_1185_1757)"/>
<path d="M68.3333 115C68.3333 116.473 69.5272 117.667 71 117.667C72.4728 117.667 73.6667 116.473 73.6667 115C73.6667 113.527 72.4728 112.333 71 112.333C69.5272 112.333 68.3333 113.527 68.3333 115ZM573 128.5H464.046V129.5H573V128.5ZM461.546 131V150H462.546V131H461.546ZM460.046 151.5H377.447V152.5H460.046V151.5ZM375.947 150V112H374.947V150H375.947ZM373.447 109.5H317.911V110.5H373.447V109.5ZM315.411 112V127H316.411V112H315.411ZM313.911 128.5H194.779V129.5H313.911V128.5ZM193.279 127V117H192.279V127H193.279ZM190.779 114.5H71V115.5H190.779V114.5ZM193.279 117C193.279 115.619 192.16 114.5 190.779 114.5V115.5C191.607 115.5 192.279 116.172 192.279 117H193.279ZM194.779 128.5C193.951 128.5 193.279 127.828 193.279 127H192.279C192.279 128.381 193.398 129.5 194.779 129.5V128.5ZM315.411 127C315.411 127.828 314.739 128.5 313.911 128.5V129.5C315.292 129.5 316.411 128.381 316.411 127H315.411ZM317.911 109.5C316.53 109.5 315.411 110.619 315.411 112H316.411C316.411 111.172 317.083 110.5 317.911 110.5V109.5ZM375.947 112C375.947 110.619 374.828 109.5 373.447 109.5V110.5C374.276 110.5 374.947 111.172 374.947 112H375.947ZM377.447 151.5C376.619 151.5 375.947 150.828 375.947 150H374.947C374.947 151.381 376.067 152.5 377.447 152.5V151.5ZM461.546 150C461.546 150.828 460.874 151.5 460.046 151.5V152.5C461.427 152.5 462.546 151.381 462.546 150H461.546ZM464.046 128.5C462.665 128.5 461.546 129.619 461.546 131H462.546C462.546 130.172 463.217 129.5 464.046 129.5V128.5Z" fill="url(#paint2_linear_1185_1757)"/>
<path d="M25.3333 263C25.3333 264.473 26.5272 265.667 28 265.667C29.4728 265.667 30.6667 264.473 30.6667 263C30.6667 261.527 29.4728 260.333 28 260.333C26.5272 260.333 25.3333 261.527 25.3333 263ZM573 180.5H510.087V181.5H573V180.5ZM507.587 183V202H508.587V183H507.587ZM506.087 203.5H359.975V204.5H506.087V203.5ZM358.475 202V174H357.475V202H358.475ZM355.975 171.5H293.71V172.5H355.975V171.5ZM291.21 174V231H292.21V174H291.21ZM289.71 232.5H180.112V233.5H289.71V232.5ZM178.612 231V216H177.612V231H178.612ZM176.112 213.5H127.37V214.5H176.112V213.5ZM124.87 216V261H125.87V216H124.87ZM123.37 262.5H28V263.5H123.37V262.5ZM124.87 261C124.87 261.828 124.198 262.5 123.37 262.5V263.5C124.75 263.5 125.87 262.381 125.87 261H124.87ZM127.37 213.5C125.989 213.5 124.87 214.619 124.87 216H125.87C125.87 215.172 126.541 214.5 127.37 214.5V213.5ZM178.612 216C178.612 214.619 177.492 213.5 176.112 213.5V214.5C176.94 214.5 177.612 215.172 177.612 216H178.612ZM180.112 232.5C179.283 232.5 178.612 231.828 178.612 231H177.612C177.612 232.381 178.731 233.5 180.112 233.5V232.5ZM291.21 231C291.21 231.828 290.538 232.5 289.71 232.5V233.5C291.09 233.5 292.21 232.381 292.21 231H291.21ZM293.71 171.5C292.329 171.5 291.21 172.619 291.21 174H292.21C292.21 173.172 292.881 172.5 293.71 172.5V171.5ZM358.475 174C358.475 172.619 357.356 171.5 355.975 171.5V172.5C356.804 172.5 357.475 173.172 357.475 174H358.475ZM359.975 203.5C359.147 203.5 358.475 202.828 358.475 202H357.475C357.475 203.381 358.594 204.5 359.975 204.5V203.5ZM507.587 202C507.587 202.828 506.915 203.5 506.087 203.5V204.5C507.468 204.5 508.587 203.381 508.587 202H507.587ZM510.087 180.5C508.706 180.5 507.587 181.619 507.587 183H508.587C508.587 182.172 509.258 181.5 510.087 181.5V180.5Z" fill="url(#paint3_linear_1185_1757)"/>
<path d="M75.3333 315C75.3333 316.473 76.5272 317.667 78 317.667C79.4728 317.667 80.6667 316.473 80.6667 315C80.6667 313.527 79.4728 312.333 78 312.333C76.5272 312.333 75.3333 313.527 75.3333 315ZM573 282.5H546.598V283.5H573V282.5ZM544.098 285V300H545.098V285H544.098ZM542.598 301.5H235.533V302.5H542.598V301.5ZM233.033 304V313H234.033V304H233.033ZM231.533 314.5H78V315.5H231.533V314.5ZM233.033 313C233.033 313.828 232.361 314.5 231.533 314.5V315.5C232.913 315.5 234.033 314.381 234.033 313H233.033ZM235.533 301.5C234.152 301.5 233.033 302.619 233.033 304H234.033C234.033 303.172 234.704 302.5 235.533 302.5V301.5ZM544.098 300C544.098 300.828 543.427 301.5 542.598 301.5V302.5C543.979 302.5 545.098 301.381 545.098 300H544.098ZM546.598 282.5C545.218 282.5 544.098 283.619 544.098 285H545.098C545.098 284.172 545.77 283.5 546.598 283.5V282.5Z" fill="url(#paint4_linear_1185_1757)"/>
<defs>
<linearGradient id="paint0_linear_1185_1757" x1="33" y1="18" x2="573" y2="18" gradientUnits="userSpaceOnUse">
<stop stop-color="#11C76F"/>
<stop offset="1" stop-color="#086136" stop-opacity="0"/>
</linearGradient>
<linearGradient id="paint1_linear_1185_1757" x1="3" y1="72.5" x2="573" y2="72.5" gradientUnits="userSpaceOnUse">
<stop stop-color="#11C76F"/>
<stop offset="1" stop-color="#086136" stop-opacity="0"/>
</linearGradient>
<linearGradient id="paint2_linear_1185_1757" x1="71" y1="131" x2="573" y2="131" gradientUnits="userSpaceOnUse">
<stop stop-color="#11C76F"/>
<stop offset="1" stop-color="#086136" stop-opacity="0"/>
</linearGradient>
<linearGradient id="paint3_linear_1185_1757" x1="28" y1="217.5" x2="573" y2="217.5" gradientUnits="userSpaceOnUse">
<stop stop-color="#11C76F"/>
<stop offset="1" stop-color="#086136" stop-opacity="0"/>
</linearGradient>
<linearGradient id="paint4_linear_1185_1757" x1="78" y1="299" x2="573" y2="299" gradientUnits="userSpaceOnUse">
<stop stop-color="#11C76F"/>
<stop offset="1" stop-color="#086136" stop-opacity="0"/>
</linearGradient>
</defs>
</svg>
