<svg width="451" height="525" viewBox="0 0 451 525" fill="none" xmlns="http://www.w3.org/2000/svg">
<path d="M120.335 6.37895L449.67 87.9742L343.868 515.01C342.407 520.907 336.443 524.503 330.546 523.042L11.8883 444.092C5.99142 442.631 2.39545 436.666 3.85644 430.769L13.0583 393.629C13.9072 390.203 16.3464 387.398 19.6053 386.078L19.9225 385.956L20.5958 385.707C28.7913 382.678 31.6927 372.62 26.4824 365.704L26.2285 365.376L24.9207 363.747C22.7738 361.072 21.9978 357.548 22.8227 354.218L107.013 14.4108C108.474 8.51394 114.438 4.91797 120.335 6.37895Z" fill="#11C76F" fill-opacity="0.2"/>
<path d="M120.335 6.37895L449.67 87.9742L343.868 515.01C342.407 520.907 336.443 524.503 330.546 523.042L11.8883 444.092C5.99142 442.631 2.39545 436.666 3.85644 430.769L13.0583 393.629C13.9072 390.203 16.3464 387.398 19.6053 386.078L19.9225 385.956L20.5958 385.707C28.7913 382.678 31.6927 372.62 26.4824 365.704L26.2285 365.376L24.9207 363.747C22.7738 361.072 21.9978 357.548 22.8227 354.218L107.013 14.4108C108.474 8.51394 114.438 4.91797 120.335 6.37895Z" stroke="url(#paint0_linear_1342_1194)" stroke-width="2"/>
<path d="M120.335 6.37895L449.67 87.9742L343.868 515.01C342.407 520.907 336.443 524.503 330.546 523.042L11.8883 444.092C5.99142 442.631 2.39545 436.666 3.85644 430.769L13.0583 393.629C13.9072 390.203 16.3464 387.398 19.6053 386.078L19.9225 385.956L20.5958 385.707C28.7913 382.678 31.6927 372.62 26.4824 365.704L26.2285 365.376L24.9207 363.747C22.7738 361.072 21.9978 357.548 22.8227 354.218L107.013 14.4108C108.474 8.51394 114.438 4.91797 120.335 6.37895Z" stroke="url(#paint1_linear_1342_1194)" stroke-opacity="0.5" stroke-width="2"/>
<g clip-path="url(#clip0_1342_1194)">
<path d="M324.972 492.329C327.053 490.391 328.971 488.607 329.497 486.481C329.84 485.099 329.619 483.638 328.884 482.418C328.149 481.199 326.96 480.322 325.578 479.979C324.196 479.637 322.734 479.858 321.515 480.593C320.296 481.328 319.418 482.517 319.076 483.899C318.549 486.026 319.411 488.499 320.348 491.183L320.538 491.726C320.233 491.346 319.95 490.987 319.687 490.65C318.242 488.804 317.308 487.609 315.502 487.162C314.12 486.819 312.659 487.04 311.44 487.775C310.22 488.51 309.343 489.699 309.001 491.081C308.658 492.463 308.879 493.925 309.614 495.144C310.349 496.363 311.538 497.241 312.92 497.583C315.048 498.11 317.52 497.248 320.204 496.311L320.249 496.295C319.392 499.236 317.813 500.784 316.069 502.491L315.394 503.156C314.689 503.86 315.052 505.024 316.02 505.264L322.226 506.802C323.193 507.042 324.058 506.181 323.763 505.229L323.476 504.326C322.732 502.002 322.057 499.897 322.672 496.895L322.705 496.931C324.642 499.012 326.426 500.929 328.552 501.456C329.934 501.799 331.396 501.578 332.615 500.843C333.834 500.108 334.712 498.918 335.054 497.536C335.397 496.154 335.176 494.693 334.441 493.474C333.706 492.254 332.516 491.377 331.134 491.035C329.329 490.587 327.945 491.208 325.805 492.166C325.415 492.342 324.997 492.527 324.55 492.72L324.972 492.329Z" fill="#11C76F" fill-opacity="0.5"/>
</g>
<g clip-path="url(#clip1_1342_1194)">
<g filter="url(#filter0_i_1342_1194)">
<path d="M235.928 262C244.252 254.251 251.921 247.114 254.028 238.61C255.398 233.082 254.515 227.237 251.575 222.36C248.635 217.482 243.877 213.973 238.349 212.603C232.822 211.234 226.976 212.116 222.099 215.057C217.222 217.997 213.712 222.754 212.343 228.282C210.234 236.791 213.685 246.683 217.43 257.417L218.191 259.591C216.972 258.068 215.837 256.633 214.789 255.286C209.008 247.903 205.27 243.122 198.048 241.332C192.52 239.963 186.675 240.845 181.797 243.786C176.92 246.726 173.411 251.483 172.041 257.011C170.672 262.539 171.554 268.385 174.494 273.262C177.435 278.139 182.192 281.649 187.72 283.018C196.229 285.126 206.121 281.676 216.855 277.931L217.037 277.865C213.607 289.631 207.29 295.82 200.317 302.648L197.617 305.308C194.795 308.127 196.246 312.783 200.118 313.743L224.941 319.893C228.813 320.852 232.27 317.411 231.09 313.602L229.945 309.988C226.966 300.695 224.269 292.272 226.729 280.267L226.859 280.41C234.608 288.734 241.745 296.403 250.249 298.51C255.777 299.88 261.622 298.997 266.499 296.057C271.377 293.116 274.886 288.359 276.256 282.831C277.625 277.303 276.743 271.458 273.802 266.581C270.862 261.703 266.105 258.194 260.577 256.824C253.355 255.035 247.817 257.518 239.258 261.348C237.701 262.054 236.028 262.793 234.24 263.567L235.928 262Z" fill="url(#paint2_radial_1342_1194)"/>
</g>
<path d="M238.229 213.089C243.628 214.426 248.275 217.854 251.147 222.617C254.019 227.381 254.88 233.09 253.543 238.489C252.515 242.637 250.124 246.479 246.928 250.266C244.529 253.107 241.693 255.899 238.667 258.754L235.588 261.633L233.899 263.201L234.439 264.025C236.228 263.251 237.903 262.511 239.463 261.804C248.052 257.961 253.429 255.569 260.457 257.31C265.856 258.648 270.503 262.075 273.374 266.839C276.246 271.602 277.108 277.312 275.77 282.711C274.433 288.11 271.005 292.757 266.242 295.628C261.478 298.5 255.768 299.363 250.369 298.025C246.222 296.998 242.38 294.606 238.593 291.409C234.806 288.212 231.106 284.238 227.227 280.072L227.228 280.072L227.098 279.93L226.436 279.205L226.239 280.166C223.751 292.309 226.489 300.842 229.469 310.139L229.468 310.14L230.613 313.748L230.613 313.749C231.668 317.158 228.585 320.28 225.062 319.407L200.238 313.257C196.715 312.384 195.445 308.184 197.971 305.662L197.97 305.661L200.667 303.004L200.667 303.003C207.425 296.386 213.647 290.298 217.183 279.104L217.517 278.005L217.791 277.063L216.868 277.395L216.686 277.46C211.314 279.334 206.188 281.122 201.346 282.181C196.505 283.24 191.99 283.561 187.84 282.533C182.441 281.195 177.794 277.767 174.922 273.003C172.051 268.24 171.189 262.53 172.527 257.131C173.864 251.732 177.292 247.086 182.055 244.214C186.819 241.342 192.528 240.48 197.927 241.818C204.077 243.341 207.631 247.073 212.31 252.946L214.395 255.593C215.445 256.943 216.581 258.38 217.801 259.903L218.663 259.426L217.902 257.251L217.901 257.251C216.026 251.878 214.239 246.751 213.179 241.908C212.12 237.067 211.8 232.552 212.828 228.402L212.959 227.898C214.381 222.714 217.742 218.267 222.357 215.485C227.121 212.613 232.83 211.751 238.229 213.089Z" stroke="url(#paint3_radial_1342_1194)"/>
</g>
<g clip-path="url(#clip2_1342_1194)">
<path d="M132.126 35.9789C134.208 34.0417 136.125 32.2575 136.652 30.1315C136.994 28.7496 136.773 27.2882 136.038 26.0689C135.303 24.8496 134.114 23.9722 132.732 23.6298C131.35 23.2874 129.889 23.5081 128.669 24.2431C127.45 24.9782 126.573 26.1676 126.23 27.5496C125.703 29.6768 126.566 32.1498 127.502 34.8332L127.692 35.3767C127.387 34.9961 127.104 34.6373 126.842 34.3004C125.396 32.4546 124.462 31.2594 122.657 30.8121C121.275 30.4697 119.813 30.6903 118.594 31.4254C117.375 32.1605 116.497 33.3499 116.155 34.7318C115.812 36.1138 116.033 37.5752 116.768 38.7945C117.503 40.0138 118.693 40.8911 120.075 41.2335C122.202 41.7606 124.675 40.898 127.358 39.9617L127.404 39.9454C126.546 42.8868 124.967 44.4339 123.224 46.141L122.549 46.8061C121.843 47.5106 122.206 48.6748 123.174 48.9146L129.38 50.4522C130.348 50.692 131.212 49.8319 130.917 48.8794L130.631 47.9761C129.886 45.6526 129.212 43.5471 129.827 40.5457L129.859 40.5814C131.797 42.6625 133.581 44.5798 135.707 45.1065C137.089 45.4489 138.55 45.2283 139.769 44.4932C140.989 43.7581 141.866 42.5688 142.208 41.1868C142.551 39.8048 142.33 38.3434 141.595 37.1241C140.86 35.9048 139.671 35.0275 138.289 34.6851C136.483 34.2378 135.099 34.8585 132.959 35.8161C132.57 35.9924 132.152 36.1773 131.704 36.3708L132.126 35.9789Z" fill="#11C76F" fill-opacity="0.5"/>
</g>
<g filter="url(#filter1_i_1342_1194)">
<circle cx="381.636" cy="88.1851" r="7.5" transform="rotate(13.9153 381.636 88.1851)" fill="#101010"/>
</g>
<circle cx="381.636" cy="88.1851" r="7" transform="rotate(13.9153 381.636 88.1851)" stroke="#11C76F"/>
<g filter="url(#filter2_i_1342_1194)">
<circle cx="407.843" cy="94.6783" r="7.5" transform="rotate(13.9153 407.843 94.6783)" fill="#101010"/>
</g>
<circle cx="407.843" cy="94.6783" r="7" transform="rotate(13.9153 407.843 94.6783)" stroke="#11C76F"/>
<path d="M141.301 432.076C140.947 433.506 141.819 434.952 143.249 435.306C144.678 435.66 146.124 434.788 146.478 433.359C146.832 431.929 145.961 430.483 144.531 430.129C143.102 429.775 141.656 430.647 141.301 432.076ZM109.544 468.799L110.03 468.919L113.785 453.762L113.3 453.642L112.814 453.522L109.059 468.678L109.544 468.799ZM115.722 452.182L115.602 452.667L121.489 454.126L121.609 453.641L121.73 453.155L115.842 451.697L115.722 452.182ZM124.032 452.18L124.517 452.3L126.097 445.924L125.611 445.804L125.126 445.684L123.546 452.06L124.032 452.18ZM128.034 444.344L127.913 444.829L138.197 447.377L138.318 446.892L138.438 446.406L128.154 443.859L128.034 444.344ZM140.74 445.431L141.225 445.552L144.375 432.838L143.89 432.718L143.405 432.597L140.255 445.311L140.74 445.431ZM138.318 446.892L138.197 447.377C139.538 447.709 140.893 446.892 141.225 445.552L140.74 445.431L140.255 445.311C140.055 446.115 139.242 446.606 138.438 446.406L138.318 446.892ZM125.611 445.804L126.097 445.924C126.296 445.12 127.109 444.63 127.913 444.829L128.034 444.344L128.154 443.859C126.814 443.526 125.458 444.344 125.126 445.684L125.611 445.804ZM121.609 453.641L121.489 454.126C122.829 454.458 124.185 453.641 124.517 452.3L124.032 452.18L123.546 452.06C123.347 452.864 122.534 453.354 121.73 453.155L121.609 453.641ZM113.3 453.642L113.785 453.762C113.984 452.958 114.797 452.468 115.602 452.667L115.722 452.182L115.842 451.697C114.502 451.364 113.146 452.182 112.814 453.522L113.3 453.642Z" fill="#11C76F" fill-opacity="0.2"/>
<path d="M158.256 426.426C157.902 427.856 158.774 429.302 160.203 429.656C161.633 430.01 163.079 429.138 163.433 427.709C163.787 426.279 162.916 424.833 161.486 424.479C160.056 424.125 158.61 424.997 158.256 426.426ZM141.665 477.276L142.15 477.396L145.905 462.24L145.42 462.119L144.935 461.999L141.18 477.155L141.665 477.276ZM147.842 460.659L147.722 461.144L155.564 463.087L155.684 462.602L155.804 462.116L147.962 460.174L147.842 460.659ZM158.106 461.141L158.591 461.262L160.413 453.909L159.928 453.788L159.442 453.668L157.621 461.021L158.106 461.141ZM158.467 451.366L158.588 450.881L157.097 450.511L156.977 450.997L156.856 451.482L158.347 451.851L158.467 451.366ZM155.516 448.574L156.002 448.695L161.33 427.188L160.845 427.068L160.359 426.947L155.031 448.454L155.516 448.574ZM156.977 450.997L157.097 450.511C156.293 450.312 155.802 449.499 156.002 448.695L155.516 448.574L155.031 448.454C154.699 449.794 155.516 451.15 156.856 451.482L156.977 450.997ZM159.928 453.788L160.413 453.909C160.745 452.568 159.928 451.213 158.588 450.881L158.467 451.366L158.347 451.851C159.151 452.051 159.642 452.864 159.442 453.668L159.928 453.788ZM155.684 462.602L155.564 463.087C156.904 463.419 158.259 462.602 158.591 461.262L158.106 461.141L157.621 461.021C157.421 461.825 156.608 462.316 155.804 462.116L155.684 462.602ZM145.42 462.119L145.905 462.24C146.105 461.435 146.918 460.945 147.722 461.144L147.842 460.659L147.962 460.174C146.622 459.842 145.267 460.659 144.935 461.999L145.42 462.119Z" fill="#11C76F" fill-opacity="0.2"/>
<defs>
<filter id="filter0_i_1342_1194" x="171.41" y="211.973" width="105.477" height="109.083" filterUnits="userSpaceOnUse" color-interpolation-filters="sRGB">
<feFlood flood-opacity="0" result="BackgroundImageFix"/>
<feBlend mode="normal" in="SourceGraphic" in2="BackgroundImageFix" result="shape"/>
<feColorMatrix in="SourceAlpha" type="matrix" values="0 0 0 0 0 0 0 0 0 0 0 0 0 0 0 0 0 0 127 0" result="hardAlpha"/>
<feOffset dy="1"/>
<feGaussianBlur stdDeviation="5"/>
<feComposite in2="hardAlpha" operator="arithmetic" k2="-1" k3="1"/>
<feColorMatrix type="matrix" values="0 0 0 0 0 0 0 0 0 0 0 0 0 0 0 0 0 0 1 0"/>
<feBlend mode="normal" in2="shape" result="effect1_innerShadow_1342_1194"/>
</filter>
<filter id="filter1_i_1342_1194" x="374.135" y="80.6836" width="15.0039" height="15.0029" filterUnits="userSpaceOnUse" color-interpolation-filters="sRGB">
<feFlood flood-opacity="0" result="BackgroundImageFix"/>
<feBlend mode="normal" in="SourceGraphic" in2="BackgroundImageFix" result="shape"/>
<feColorMatrix in="SourceAlpha" type="matrix" values="0 0 0 0 0 0 0 0 0 0 0 0 0 0 0 0 0 0 127 0" result="hardAlpha"/>
<feOffset/>
<feGaussianBlur stdDeviation="2.5"/>
<feComposite in2="hardAlpha" operator="arithmetic" k2="-1" k3="1"/>
<feColorMatrix type="matrix" values="0 0 0 0 1 0 0 0 0 1 0 0 0 0 1 0 0 0 1 0"/>
<feBlend mode="normal" in2="shape" result="effect1_innerShadow_1342_1194"/>
</filter>
<filter id="filter2_i_1342_1194" x="400.342" y="87.1768" width="15.0039" height="15.0029" filterUnits="userSpaceOnUse" color-interpolation-filters="sRGB">
<feFlood flood-opacity="0" result="BackgroundImageFix"/>
<feBlend mode="normal" in="SourceGraphic" in2="BackgroundImageFix" result="shape"/>
<feColorMatrix in="SourceAlpha" type="matrix" values="0 0 0 0 0 0 0 0 0 0 0 0 0 0 0 0 0 0 127 0" result="hardAlpha"/>
<feOffset/>
<feGaussianBlur stdDeviation="2.5"/>
<feComposite in2="hardAlpha" operator="arithmetic" k2="-1" k3="1"/>
<feColorMatrix type="matrix" values="0 0 0 0 1 0 0 0 0 1 0 0 0 0 1 0 0 0 1 0"/>
<feBlend mode="normal" in2="shape" result="effect1_innerShadow_1342_1194"/>
</filter>
<linearGradient id="paint0_linear_1342_1194" x1="279.904" y1="44.8833" x2="170.977" y2="484.538" gradientUnits="userSpaceOnUse">
<stop stop-color="#11C76F"/>
<stop offset="1" stop-color="#086136"/>
</linearGradient>
<linearGradient id="paint1_linear_1342_1194" x1="27.6914" y1="376.449" x2="21.7083" y2="375.485" gradientUnits="userSpaceOnUse">
<stop stop-color="#086136"/>
<stop offset="1" stop-color="#11C76F"/>
</linearGradient>
<radialGradient id="paint2_radial_1342_1194" cx="0" cy="0" r="1" gradientUnits="userSpaceOnUse" gradientTransform="translate(238.269 212.929) rotate(103.915) scale(107.03 43.2816)">
<stop stop-color="#11C76F"/>
<stop offset="1" stop-color="#086136"/>
</radialGradient>
<radialGradient id="paint3_radial_1342_1194" cx="0" cy="0" r="1" gradientUnits="userSpaceOnUse" gradientTransform="translate(238.269 212.929) rotate(103.915) scale(53.3471 110.217)">
<stop stop-color="#4AF0A0"/>
<stop offset="1" stop-color="#2B8A5C"/>
</radialGradient>
<clipPath id="clip0_1342_1194">
<rect width="32.2096" height="32.2096" fill="white" transform="translate(310.592 473.501) rotate(13.9153)"/>
</clipPath>
<clipPath id="clip1_1342_1194">
<rect width="128.838" height="128.838" fill="white" transform="translate(178.402 186.689) rotate(13.9153)"/>
</clipPath>
<clipPath id="clip2_1342_1194">
<rect width="32.2096" height="32.2096" fill="white" transform="translate(117.746 17.1514) rotate(13.9153)"/>
</clipPath>
</defs>
</svg>
