<svg width="64" height="64" viewBox="0 0 64 64" fill="none" xmlns="http://www.w3.org/2000/svg">
<path d="M28.2109 6.62109C31.5434 6.12378 34.9418 6.28664 38.2109 7.10254V7.10352C51.9427 10.5429 60.3103 24.4548 56.8965 38.2129C53.4559 51.9704 39.5456 60.3353 25.79 56.8965C12.2467 53.5107 3.93523 39.978 6.95215 26.4336L7.10449 25.7891C7.91976 22.5194 9.37134 19.442 11.376 16.7334C13.3806 14.0249 15.8985 11.737 18.7871 10.002C21.6757 8.26689 24.8782 7.1185 28.2109 6.62109ZM29.9375 14.4229L28.9775 18.2393C28.6792 18.1697 28.3955 18.1021 28.1035 18.0225L28.0947 18.0195L28.085 18.0166L24.0576 17.0039L23.0928 16.7607L22.8457 17.7246L22.0449 20.8447L21.791 21.8369L22.2695 21.9473L22.2627 21.9512L24.9102 22.5986C25.3267 22.7005 25.43 22.8409 25.4551 22.8799C25.4875 22.9304 25.5175 23.022 25.5117 23.1914L22.2754 36.1602C22.273 36.164 22.2716 36.1688 22.2686 36.1729C22.2578 36.1874 22.2466 36.1977 22.2373 36.2041C22.2297 36.2092 22.2196 36.214 22.2021 36.2178C22.1844 36.2215 22.1406 36.2281 22.0635 36.2148L22.0322 36.209H22.0303C21.9833 36.1984 21.9085 36.1813 21.8105 36.1572C21.6163 36.1096 21.3517 36.0428 21.084 35.9746C20.817 35.9066 20.5492 35.8371 20.3477 35.7852C20.2469 35.7592 20.1623 35.7379 20.1035 35.7227C20.0742 35.7151 20.0508 35.7091 20.0352 35.7051C20.0275 35.7031 20.0216 35.7012 20.0176 35.7002C20.0156 35.6997 20.0137 35.6995 20.0127 35.6992H20.0117L19.1826 35.4834L19.0879 35.7012L18.959 35.6797L19.0557 35.7764L18.8428 36.2705L17.4023 39.6035L16.9375 40.6807L18.0752 40.9697L21.8613 41.9297V41.9287C22.2385 42.0265 22.6176 42.1265 22.9971 42.2236L22.0176 46.1016L21.7734 47.0693L22.7402 47.3154L25.6738 48.0625L26.6484 48.3105L26.8916 47.335L27.8467 43.4883C27.9763 43.5216 28.1036 43.5568 28.2305 43.5898L27.2705 47.4092L27.0273 48.377L27.9941 48.6221L30.9277 49.3691L31.8984 49.6162L32.1436 48.6455L33.1426 44.6914C35.3032 45.0353 37.3468 45.1075 39.0977 44.5693C41.1817 43.9287 42.7356 42.4604 43.6045 39.9463L43.6055 39.9473C44.3318 37.9861 44.3841 36.2736 43.752 34.8154C43.3856 33.9705 42.8147 33.2728 42.1143 32.6904C42.4964 32.4517 42.8549 32.166 43.1787 31.8223C43.9423 31.0116 44.4568 29.9476 44.7031 28.6094L44.749 28.3379L44.75 28.3359C45.0663 26.2326 44.4 24.5593 43.1152 23.2705C42.0704 22.2225 40.6396 21.4514 39.0811 20.8408L40.0645 16.9092L40.3115 15.918L39.3154 15.6914L36.3818 15.0254L35.4316 14.8086L35.1914 15.7539L34.2607 19.4121C34.1277 19.3809 33.9939 19.3499 33.8594 19.3193L34.7842 15.6016L35.0283 14.6221L34.0459 14.3877L31.1396 13.6943L30.1787 13.4648L29.9375 14.4229ZM30.4141 33.5117C31.4851 33.7503 32.8624 34.0739 34.0605 34.6172C34.8568 34.9783 35.4579 35.3895 35.8076 35.8379C36.0813 36.1889 36.2212 36.5823 36.1445 37.0986L36.0977 37.3281V37.3311C35.9531 37.9093 35.6314 38.2341 35.1572 38.4414C34.6317 38.6712 33.9014 38.7558 33.0254 38.7109C31.7189 38.644 30.341 38.3101 29.2881 38.0322L30.4141 33.5117ZM33.3867 24.9277C34.0823 25.1089 34.8059 25.3308 35.4375 25.626C36.0797 25.9261 36.54 26.263 36.8008 26.625C37.0288 26.9417 37.1474 27.332 37.0039 27.918C36.8719 28.4454 36.5993 28.7251 36.2334 28.9014C35.8195 29.1007 35.2357 29.1858 34.5176 29.1572C33.5082 29.117 32.4453 28.8652 31.6074 28.6357L32.5918 24.7334C32.8582 24.7971 33.1346 24.8621 33.3867 24.9277Z" stroke="white" stroke-width="2"/>
</svg>
