<svg width="64" height="64" viewBox="0 0 64 64" fill="none" xmlns="http://www.w3.org/2000/svg">
<path d="M31.667 6C45.8426 6.00018 57.333 17.4914 57.333 31.667V50.333C57.333 52.1895 56.596 53.9704 55.2832 55.2832C53.9704 56.596 52.1895 57.333 50.333 57.333C48.4767 57.3329 46.6965 56.5958 45.3838 55.2832C44.071 53.9704 43.333 52.1895 43.333 50.333V42.333L43.3389 42.1182C43.3921 41.0473 43.8408 40.0313 44.6025 39.2695C45.4152 38.4569 46.5177 38 47.667 38H54V31.667C54 25.744 51.6471 20.0633 47.459 15.875C43.2707 11.6868 37.59 9.33309 31.667 9.33301C25.7438 9.33301 20.0633 11.6867 15.875 15.875C11.6867 20.0633 9.33301 25.7438 9.33301 31.667V38H15.667C16.8161 38.0001 17.9179 38.457 18.7305 39.2695C19.543 40.0821 19.9999 41.1839 20 42.333V50.333C20 52.1894 19.2628 53.9705 17.9502 55.2832C16.6374 56.596 14.8565 57.333 13 57.333L12.6533 57.3252C10.923 57.2395 9.28062 56.514 8.0498 55.2832C6.73715 53.9705 6 52.1894 6 50.333V31.667C6 17.4913 17.4913 6 31.667 6Z" stroke="white" stroke-width="2"/>
</svg>
