<svg width="64" height="64" viewBox="0 0 64 64" fill="none" xmlns="http://www.w3.org/2000/svg">
<path d="M31.999 3.6665C33.6185 3.6665 35.2225 3.98529 36.7188 4.60498C38.2151 5.22479 39.5754 6.13355 40.7207 7.27881C41.8658 8.42394 42.7738 9.78365 43.3936 11.2798C44.0133 12.776 44.333 14.38 44.333 15.9995V22.3335H47.999C49.1482 22.3335 50.2508 22.7895 51.0635 23.6021C51.8761 24.4147 52.333 25.5172 52.333 26.6665V53.3335C52.3329 54.4826 51.876 55.5844 51.0635 56.397C50.2508 57.2096 49.1483 57.6665 47.999 57.6665H15.999C14.8499 57.6664 13.7481 57.2096 12.9355 56.397C12.123 55.5844 11.6661 54.4827 11.666 53.3335V26.6665L11.6709 26.4517C11.724 25.3806 12.1737 24.3639 12.9355 23.6021C13.6973 22.8404 14.7134 22.3916 15.7842 22.3384L15.999 22.3335H19.666V15.9995L19.6699 15.6938C19.7483 12.5337 21.0376 9.51954 23.2783 7.27881C25.5912 4.96594 28.7281 3.66659 31.999 3.6665ZM31.999 33.6665C30.3194 33.6666 28.7091 34.3343 27.5215 35.522C26.3338 36.7096 25.6661 38.3199 25.666 39.9995C25.666 41.6792 26.3338 43.2903 27.5215 44.478C28.7091 45.6656 30.3195 46.3334 31.999 46.3335C33.6787 46.3335 35.2898 45.6658 36.4775 44.478C37.6653 43.2903 38.333 41.6792 38.333 39.9995C38.3329 38.32 37.6651 36.7096 36.4775 35.522C35.2898 34.3342 33.6787 33.6665 31.999 33.6665ZM31.999 6.99951C29.6122 6.9996 27.3235 7.94848 25.6357 9.63623C23.948 11.324 22.9991 13.6127 22.999 15.9995V22.3335H40.999V15.9995C40.9989 13.6128 40.0509 11.324 38.3633 9.63623C36.6755 7.9484 34.386 6.99951 31.999 6.99951Z" stroke="white" stroke-width="2"/>
</svg>
